<?xml version="1.0" standalone="no"?>
<!DOCTYPE svg PUBLIC "-//W3C//DTD SVG 1.1//EN" "http://www.w3.org/Graphics/SVG/1.1/DTD/svg11.dtd" >
<svg xmlns="http://www.w3.org/2000/svg" xmlns:xlink="http://www.w3.org/1999/xlink" version="1.1">
<metadata></metadata>
<defs>
<font id="sukhumvitbold" horiz-adv-x="997" >
<font-face units-per-em="2048" ascent="1638" descent="-410" />
<missing-glyph horiz-adv-x="589" />
<glyph unicode="&#xe2f;&#xe2f;" horiz-adv-x="1482" d="M1399 0h-246v711q-28 -44 -90.5 -79.5t-126.5 -35.5v-596h-246v711q-38 -59 -110.5 -94t-139.5 -35q-166 0 -265 100.5t-99 253.5v111h241v-97q0 -82 47 -130t125 -48q88 0 147.5 64.5t59.5 156.5v54h240v-271q84 0 153.5 68.5t69.5 148.5v54h240v-1047z" />
<glyph unicode="&#xe4f;&#x22;" horiz-adv-x="1073" d="M543 10q-164 0 -281 117t-117 283q0 164 117 280.5t281 116.5t280.5 -116.5t116.5 -280.5q0 -166 -116.5 -283t-280.5 -117zM543 72q139 0 237.5 99t98.5 239q0 138 -98.5 236.5t-237.5 98.5t-237.5 -98.5t-98.5 -236.5q0 -140 98.5 -239t237.5 -99zM543 178 q-96 0 -164 68t-68 162q0 96 68 163.5t162 67.5q96 0 163.5 -67.5t67.5 -161.5q0 -96 -67.5 -164t-161.5 -68zM465 893h-127v354h127v-354zM762 893h-125v354h125v-354zM543 248q66 0 112.5 47.5t46.5 114.5q0 66 -47 112.5t-114 46.5q-66 0 -113 -47t-47 -114 q0 -66 47.5 -113t114.5 -47z" />
<glyph unicode="&#xe24;&#xe32;" horiz-adv-x="1835" d="M1755 -410h-244v1080q0 99 -46 149.5t-132 50.5q-85 0 -168.5 -35t-146.5 -108q4 -28 4 -45v-1092h-246v1080q0 99 -56 154t-153 55q-79 0 -142.5 -30.5t-98.5 -84.5l114 -148q-86 -57 -86 -157v-238q0 -31 29 -31h78v-190h-152q-82 0 -141 59.5t-59 143.5v237 q0 48 23.5 99t62.5 84q1 0 -29.5 33.5t-61.5 67.5l-30 34q41 129 178.5 220t314.5 91q121 0 220 -44.5t159 -121.5q160 166 404 166q191 0 298 -110t107 -304v-1065z" />
<glyph unicode="&#xe26;&#xe32;" horiz-adv-x="1863" d="M1784 -410h-244v1080q0 99 -46 149.5t-132 50.5q-85 0 -169 -37t-149 -108q5 -35 5 -47v-1088h-244v1080q0 98 -59.5 153.5t-157.5 55.5q-159 0 -234 -115l115 -148q-84 -56 -84 -157v-264q0 -76 -54.5 -135.5t-125.5 -59.5h-160v190h76q20 0 20 23v227q0 49 22 99.5 t60 83.5q1 0 -29.5 33.5t-61.5 67.5l-30 34q42 130 175.5 220.5t310.5 90.5q122 0 222 -45t163 -125q65 78 170.5 124t234.5 46q191 0 298.5 -110t107.5 -304v-1065z" />
<glyph unicode="fi" horiz-adv-x="1204" d="M453 0h-238v741h-176v177h176v126q0 142 75.5 225.5t215.5 86.5q98 -3 174 -27l-18 -180q-40 22 -105 22q-56 0 -80 -40.5t-24 -100.5v-112h209v-177h-209v-741zM1071 0h-237v918h237v-918zM1071 1083h-237v228h237v-228z" />
<glyph unicode="fl" horiz-adv-x="1204" d="M453 0h-238v741h-176v177h176v126q0 142 75.5 225.5t215.5 86.5q98 -3 174 -27l-18 -180q-40 22 -105 22q-56 0 -80 -40.5t-24 -100.5v-112h209v-177h-209v-741zM1071 0h-237v1335h237v-1335z" />
<glyph unicode=" "  horiz-adv-x="589" />
<glyph unicode="&#x09;" horiz-adv-x="589" />
<glyph unicode="&#xa0;" horiz-adv-x="589" />
<glyph unicode="!" horiz-adv-x="700" d="M451 365h-203l-33 878h272zM475 0h-248v250h248v-250z" />
<glyph unicode="&#x22;" horiz-adv-x="864" d="M705 797h-220v446h220v-446zM377 797h-217v446h217v-446z" />
<glyph unicode="#" d="M668 0h-156l51 365h-182l-53 -365h-156l51 365h-160v143h179l30 227h-155v142h178l49 366h158l-49 -366h182l49 366h156l-49 -366h143v-142h-164l-31 -227h144v-143h-164zM582 508l30 227h-180l-31 -227h181z" />
<glyph unicode="$" d="M465 772v279q-98 -45 -98 -156q0 -78 98 -123zM549 471v-272q102 48 102 135t-102 137zM549 -160h-84v140h-19q-89 0 -149 10t-170 37l23 225q129 -75 282 -78q9 0 33 4v332l-123 53q-236 101 -236 322q0 88 29 158t80 114t113.5 69.5t136.5 33.5v133h84v-129 q160 0 291 -45l-25 -205q-121 53 -252 53h-14v-330q41 -15 59 -22.5t56 -24t57 -27.5t50 -31t47 -38t37 -45t31 -54.5t17.5 -64t7.5 -76.5q0 -168 -97.5 -258t-264.5 -110v-146z" />
<glyph unicode="%" horiz-adv-x="1787" d="M1303 121q34 1 57 18t33.5 46t14 56.5t3.5 63.5q0 38 -3.5 66t-14 57.5t-33.5 46t-57 17.5q-61 -3 -88 -54t-27 -121q0 -191 115 -196zM586 -39h-146l768 1321h148zM492 608q-147 2 -223 84.5t-76 243.5t76.5 244.5t222.5 83.5q145 0 219.5 -83.5t74.5 -244.5 t-74.5 -243.5t-219.5 -84.5zM492 752q110 5 110 184q0 184 -110 184q-42 0 -69 -30.5t-36.5 -69.5t-9.5 -84q0 -43 9 -81t36.5 -69.5t69.5 -33.5zM1303 -20q-299 3 -299 325q0 160 76 244t223 84q144 0 219 -84t75 -244q0 -322 -294 -325z" />
<glyph unicode="&#x26;" horiz-adv-x="1292" d="M776 238l-276 309q-150 -75 -150 -201q0 -78 61.5 -130t147.5 -52q143 0 217 74zM481 862l74 -82q62 32 112 81.5t50 99.5q0 61 -38 95t-97 34q-61 0 -102.5 -35t-41.5 -97q0 -50 43 -96zM1282 0h-307l-82 111q-67 -64 -155 -97.5t-183 -33.5q-192 0 -318 96.5 t-126 263.5q0 118 59.5 199.5t202.5 142.5q-88 77 -130 141t-42 158q0 89 57.5 155.5t141.5 97t178 30.5q69 0 130.5 -15.5t113 -47t82 -87.5t30.5 -131q0 -62 -17 -111.5t-52.5 -89t-74 -68t-96.5 -61.5l228 -250q43 52 59 118t20 153h218q-9 -241 -160 -424z" />
<glyph unicode="'" horiz-adv-x="503" d="M360 797h-217v446h217v-446z" />
<glyph unicode="(" horiz-adv-x="600" d="M584 -250h-226q-284 364 -284 799q0 234 70 420.5t214 376.5h226q-128 -200 -193 -384.5t-65 -412.5q0 -432 258 -799z" />
<glyph unicode=")" horiz-adv-x="600" d="M242 -250h-226q258 371 258 799q0 231 -64 413.5t-194 383.5h226q144 -190 214 -376.5t70 -420.5q0 -439 -284 -799z" />
<glyph unicode="*" d="M788 655l-163 -118l-125 221l-135 -221l-164 118l176 191l-244 55l57 184l238 -100l-29 258h203l-31 -258l238 100l57 -184l-248 -55z" />
<glyph unicode="+" horiz-adv-x="1075" d="M631 0h-185v358h-360v185h360v358h185v-358h358v-185h-358v-358z" />
<glyph unicode="," horiz-adv-x="503" d="M256 -197h-211l115 447h258z" />
<glyph unicode="-" horiz-adv-x="600" d="M535 381h-469v197h469v-197z" />
<glyph unicode="." horiz-adv-x="503" d="M377 0h-250v250h250v-250z" />
<glyph unicode="/" horiz-adv-x="700" d="M227 -20h-186l434 1284h187z" />
<glyph unicode="0" d="M498 1079q-37 -2 -66.5 -20.5t-48.5 -44.5t-32.5 -68.5t-20 -78t-10.5 -88t-4.5 -83.5t-0.5 -78q0 -45 0.5 -76.5t4.5 -82.5t11 -87.5t20.5 -78.5t33 -68t49 -43.5t66.5 -17.5t66 17.5t48 43.5t32.5 68t20 78t10.5 87.5t4.5 83t0.5 76.5q0 56 -1 94.5t-5 90.5t-11 86.5 t-20.5 72.5t-33 61t-48 38.5t-65.5 17.5zM498 -20q-78 0 -142 22t-108 57.5t-77.5 88t-53 107.5t-31.5 121t-16 122.5t-4 119.5q0 95 11.5 181t42.5 173t78 150t124 102.5t176 39.5q434 0 434 -646q0 -62 -4.5 -119t-16.5 -122.5t-32 -120.5t-53.5 -107.5t-78 -88.5 t-108.5 -58t-141 -22z" />
<glyph unicode="1" d="M729 0h-250v958l-211 -170l-123 162l363 293h221v-1243z" />
<glyph unicode="2" d="M903 0h-825v209l135 125q394 365 401 567q-3 82 -58 124t-144 42q-130 0 -287 -98l-19 207q187 88 367 88q382 0 391 -363q-2 -75 -33 -156t-73 -147t-110 -144.5t-121.5 -131.5t-131.5 -125h508v-197z" />
<glyph unicode="3" d="M84 20l14 211q140 -57 277 -57q60 0 117 18t100 59.5t43 98.5q0 195 -273 195h-120v196h112q132 0 204.5 41.5t72.5 120.5q0 164 -213 164q-146 0 -281 -66l-14 201q171 62 348 62q60 0 112.5 -7.5t107.5 -29.5t95 -56t66.5 -92.5t28.5 -134.5q-5 -214 -232 -297v-2 q116 -18 176 -97.5t60 -199.5q0 -89 -32 -156.5t-80 -106.5t-114.5 -64t-125.5 -33t-123 -8q-178 0 -326 40z" />
<glyph unicode="4" d="M567 442v541h-2l-309 -541h311zM807 0h-240v258h-534v201l465 784h309v-801h158v-184h-158v-258z" />
<glyph unicode="5" d="M133 14l4 224q130 -64 254 -64q113 0 188 55t78 164q-3 111 -80.5 163t-203.5 52q-120 0 -223 -33l12 668h715v-186h-480l-6 -264q87 12 115 12q84 0 154 -22t126.5 -68.5t88.5 -126.5t32 -187q0 -87 -30.5 -162.5t-89 -133.5t-152.5 -91.5t-213 -33.5q-156 0 -289 34z " />
<glyph unicode="6" d="M854 1219l-31 -201q-112 49 -217 49q-61 0 -110.5 -22t-83 -59t-57 -87t-34.5 -103.5t-12 -111.5l4 -4q85 125 242 125q177 0 270 -98.5t93 -280.5q0 -209 -104 -327.5t-310 -118.5q-422 0 -422 577q0 74 7 143t23.5 141t42.5 133t66.5 115.5t92.5 92.5t123.5 60 t156.5 22q138 0 260 -45zM504 164q82 3 123 65.5t41 157.5q0 100 -40.5 165.5t-127.5 65.5t-127.5 -66t-40.5 -167q0 -97 44 -157.5t128 -63.5z" />
<glyph unicode="7" d="M453 0h-271l461 1047h-551v196h803v-207z" />
<glyph unicode="8" d="M692 668v-2q240 -114 240 -322q0 -184 -116 -274t-312 -90q-92 0 -170 21t-138.5 63t-95 111.5t-34.5 160.5q0 202 229 309v2q-94 41 -150.5 117t-56.5 172q0 162 108 245t287 83q85 0 158 -17.5t131.5 -52.5t92.5 -94t34 -135q0 -93 -52.5 -173t-154.5 -124zM662 922 q0 71 -40 114t-114 43q-71 0 -126.5 -40.5t-55.5 -108.5q0 -66 57.5 -113t138.5 -76q58 23 97.5 72t42.5 109zM682 330q-3 87 -61.5 139.5t-147.5 75.5q-158 -72 -158 -205q0 -74 56.5 -125t132.5 -51t125.5 44.5t52.5 121.5z" />
<glyph unicode="9" d="M690 559l-4 4q-84 -125 -233 -125q-183 0 -277 96.5t-94 282.5q0 208 103 327.5t307 119.5q94 0 167.5 -29.5t121.5 -80.5t79.5 -123.5t44.5 -153.5t13 -175q0 -78 -6.5 -149.5t-23.5 -145t-42.5 -135.5t-66 -116.5t-92.5 -93t-123.5 -60.5t-157.5 -22q-136 0 -261 43 l31 200q100 -49 217 -49q64 0 114.5 22t83.5 58.5t55.5 87t32.5 104t11 113.5zM500 623q87 3 127.5 67t40.5 168q0 96 -41.5 157t-130.5 64q-84 -3 -124 -66t-40 -157q0 -97 43 -163.5t125 -69.5z" />
<glyph unicode=":" horiz-adv-x="503" d="M377 668h-250v250h250v-250zM377 0h-250v250h250v-250z" />
<glyph unicode=";" horiz-adv-x="503" d="M256 -197h-211l115 447h258zM377 668h-250v250h250v-250z" />
<glyph unicode="&#x3c;" horiz-adv-x="1075" d="M989 -14l-903 387v153l903 389v-182l-663 -282l663 -283v-182z" />
<glyph unicode="=" horiz-adv-x="1075" d="M989 551h-903v186h903v-186zM989 164h-903v184h903v-184z" />
<glyph unicode="&#x3e;" horiz-adv-x="1075" d="M989 373l-903 -387v182l664 283l-664 282v182l903 -389v-153z" />
<glyph unicode="?" horiz-adv-x="899" d="M549 362h-219q0 121 43 205q29 59 70.5 111t71 80.5t52.5 70t25 89.5q-3 82 -61 121.5t-144 39.5q-141 0 -274 -71l-21 196q190 60 354 60q80 0 151 -18t129 -55t92 -99.5t34 -143.5q0 -57 -22.5 -110.5t-56 -93.5t-73 -85t-73 -84t-56 -90t-22.5 -104v-19zM565 0h-250 v250h250v-250z" />
<glyph unicode="@" horiz-adv-x="1431" d="M676 420q84 0 141 72t57 159q0 65 -35.5 104.5t-95.5 39.5q-87 0 -143.5 -73t-56.5 -157q0 -62 36.5 -103.5t96.5 -41.5zM1126 254h152q-201 -274 -553 -274q-97 0 -190 25t-177.5 77.5t-148.5 126.5t-101.5 180.5t-37.5 231.5q0 176 86 322.5t244.5 233.5t357.5 87 q93 0 179.5 -19t164 -60.5t135 -101.5t91.5 -148t34 -194q0 -95 -31.5 -178.5t-80.5 -140t-109.5 -97.5t-119 -60t-108.5 -19q-39 0 -66 25t-30 67h-4q-30 -40 -79 -66t-99 -26q-115 0 -196 84t-81 209q0 114 46.5 212.5t131.5 158t189 59.5q130 0 207 -115l20 86h150 l-98 -432q-13 -41 -13 -66q0 -22 27 -22q78 0 140.5 81.5t62.5 233.5q0 86 -28.5 152.5t-73 105.5t-107.5 64t-124 34t-130 9q-110 0 -205 -39t-159.5 -105t-101 -153t-36.5 -182q0 -214 134 -346t349 -132q250 0 387 111z" />
<glyph unicode="A" horiz-adv-x="1292" d="M821 481l-180 512h-4l-178 -512h362zM1274 0h-277l-106 285h-504l-108 -285h-259l484 1243h280z" />
<glyph unicode="B" horiz-adv-x="1095" d="M397 197h117q258 0 258 172q0 48 -15.5 83t-39 54.5t-60 31t-69 14.5t-74.5 3h-117v-358zM397 741h103q233 0 233 150q0 44 -14.5 74.5t-33.5 46t-53.5 24t-58.5 10t-63 1.5h-113v-306zM582 0h-435v1243h435q190 0 292.5 -73t108.5 -246q-3 -111 -68.5 -184t-179.5 -95 v-2q129 -12 207 -89t78 -194q0 -87 -30 -153.5t-75 -104.5t-106 -62t-115.5 -32t-111.5 -8z" />
<glyph unicode="C" horiz-adv-x="1095" d="M1042 225l11 -207q-129 -38 -283 -38q-153 0 -277 38.5t-215 113t-140.5 193t-49.5 271.5q0 328 173 498t509 170q135 0 281 -52l-19 -211q-68 39 -128.5 52.5t-139.5 13.5q-128 0 -223.5 -60t-144 -161t-48.5 -228q0 -196 114.5 -320t307.5 -124q71 0 150.5 15t121.5 36 z" />
<glyph unicode="D" horiz-adv-x="1292" d="M487 0h-340v1243h340q719 0 719 -622q0 -621 -719 -621zM397 197h140q109 0 201 48.5t150 147t58 228.5q0 100 -34 182t-91 134.5t-130 81t-154 28.5h-140v-850z" />
<glyph unicode="E" d="M885 0h-738v1243h734v-196h-484v-306h443v-196h-443v-348h488v-197z" />
<glyph unicode="F" horiz-adv-x="899" d="M397 0h-250v1243h693v-196h-443v-306h420v-196h-420v-545z" />
<glyph unicode="G" horiz-adv-x="1292" d="M934 193v323h-264v197h501v-670q-215 -63 -401 -63q-153 0 -277 38.5t-215 113t-140.5 193t-49.5 271.5q0 329 171.5 498.5t504.5 169.5q204 0 371 -52l-17 -211q-160 66 -319 66q-212 0 -331.5 -125.5t-119.5 -323.5q0 -196 114.5 -320t307.5 -124q96 0 164 19z" />
<glyph unicode="H" horiz-adv-x="1292" d="M1145 0h-250v545h-498v-545h-250v1243h250v-502h498v502h250v-1243z" />
<glyph unicode="I" horiz-adv-x="503" d="M377 0h-250v1243h250v-1243z" />
<glyph unicode="J" horiz-adv-x="700" d="M43 2v215q47 -20 119 -20q34 0 60 8t43 19t29 31t17.5 36t8.5 42t3.5 40.5t0.5 40.5v829h249v-948q0 -38 -9 -77.5t-33.5 -83t-61.5 -77t-98 -55.5t-138 -22q-91 0 -190 22z" />
<glyph unicode="K" horiz-adv-x="1196" d="M1174 0h-326l-447 578h-4v-578h-250v1243h250v-534l449 534h307l-512 -586z" />
<glyph unicode="L" horiz-adv-x="899" d="M881 0h-734v1243h250v-1046h484v-197z" />
<glyph unicode="M" horiz-adv-x="1687" d="M1540 0h-237v1026h-5l-335 -1026h-238l-334 1026l-4 -4v-1022h-240v1243h400l295 -942h4l295 942h399v-1243z" />
<glyph unicode="N" horiz-adv-x="1292" d="M1157 0h-303l-477 930h-2v-930h-240v1243h307l473 -930h5v930h237v-1243z" />
<glyph unicode="O" horiz-adv-x="1392" d="M696 -20q-292 3 -450 176.5t-158 468.5t158.5 467t449.5 172q290 0 449.5 -173t159.5 -466q0 -295 -160 -468.5t-449 -176.5zM696 1067q-88 -1 -156.5 -38.5t-109.5 -100.5t-61.5 -140t-20.5 -163q0 -88 20 -166t60 -143.5t109 -103.5t159 -38t159 37.5t109 102.5 t60 143.5t20 167.5q0 88 -20 164.5t-60 139.5t-109 100t-159 38z" />
<glyph unicode="P" d="M377 668h86q237 0 237 184q0 100 -64 147.5t-173 47.5h-86v-379zM377 0h-250v1243h315q519 0 519 -377q0 -86 -25 -153.5t-68 -112.5t-104.5 -74.5t-131 -42t-151.5 -12.5h-104v-471z" />
<glyph unicode="Q" horiz-adv-x="1392" d="M1274 -236h-301l-217 218q-18 -2 -60 -2q-292 3 -450 176.5t-158 468.5t158.5 467t449.5 172q290 0 449.5 -173t159.5 -466q0 -206 -80 -353t-234 -227zM696 1067q-88 -1 -156.5 -38.5t-109.5 -100.5t-61.5 -140t-20.5 -163q0 -88 20 -166t60 -143.5t109 -103.5t159 -38 t159 37.5t109 102.5t60 143.5t20 167.5q0 88 -20 164.5t-60 139.5t-109 100t-159 38z" />
<glyph unicode="R" horiz-adv-x="1095" d="M377 713h82q60 0 104 7t81.5 25t57 53t19.5 87q0 34 -9.5 60t-22 43t-36.5 29t-42.5 17.5t-50.5 8.5t-50 3.5t-51 0.5h-82v-334zM1057 0h-279l-149 387q-22 71 -59.5 100t-112.5 29h-80v-516h-250v1243h317q57 0 92.5 -0.5t87 -4t84.5 -9.5t74.5 -18t67 -29t53.5 -42.5 t43 -58.5t25 -77.5t10 -98.5q0 -113 -69 -192.5t-187 -94.5v-4q43 -5 77 -42.5t54 -86.5z" />
<glyph unicode="S" d="M127 27l23 225q140 -78 282 -78q51 0 99 15.5t84 53.5t36 91q0 87 -84 131q-35 18 -95 43.5t-104.5 44.5t-97 51t-85.5 67.5t-56 90.5t-23 123q0 98 36 173t98 119t137.5 65.5t163.5 21.5q165 0 299 -45l-25 -205q-121 53 -252 53q-35 0 -67 -8t-62.5 -26t-48.5 -53.5 t-18 -84.5q0 -24 12 -45t26 -34.5t44 -30t44.5 -23t49.5 -21.5l98 -41q64 -27 109 -55t83.5 -68.5t58 -96t19.5 -126.5q0 -79 -24.5 -142.5t-66.5 -106t-101.5 -71.5t-127 -41.5t-145.5 -12.5q-89 0 -149 10t-170 37z" />
<glyph unicode="T" d="M623 0h-248v1047h-357v196h961v-196h-356v-1047z" />
<glyph unicode="U" horiz-adv-x="1292" d="M905 524v719h248v-794q0 -233 -122.5 -351t-364.5 -118q-265 0 -396 112t-131 357v794h250v-719q0 -350 258 -350t258 350z" />
<glyph unicode="V" horiz-adv-x="1196" d="M756 0h-307l-426 1243h266l319 -977h2l316 977h248z" />
<glyph unicode="W" horiz-adv-x="1787" d="M1442 0h-320l-225 993h-2l-221 -993h-324l-327 1243h260l231 -993h4l213 993h338l219 -993h2l234 993h241z" />
<glyph unicode="X" horiz-adv-x="1196" d="M1174 0h-293l-287 483l-291 -483h-280l407 645l-371 598h289l260 -444l264 444h267l-373 -598z" />
<glyph unicode="Y" horiz-adv-x="1196" d="M727 0h-250v492l-452 751h290l293 -522l299 522h264l-444 -751v-492z" />
<glyph unicode="Z" d="M930 0h-862v203l583 844h-559v196h826v-205l-590 -841h602v-197z" />
<glyph unicode="[" horiz-adv-x="600" d="M530 -250h-397v1596h397v-175h-170v-1245h170v-176z" />
<glyph unicode="\" horiz-adv-x="700" d="M659 -20h-186l-434 1284h186z" />
<glyph unicode="]" horiz-adv-x="600" d="M469 -250h-399v176h172v1245h-172v175h399v-1596z" />
<glyph unicode="^" horiz-adv-x="1075" d="M954 557h-184l-231 498l-232 -498h-186l334 686h168z" />
<glyph unicode="_" horiz-adv-x="899" d="M895 -223h-891v90h891v-90z" />
<glyph unicode="`" horiz-adv-x="503" d="M446 1040h-147l-244 260h244z" />
<glyph unicode="a" d="M895 0h-209q-10 92 -10 137h-4q-43 -75 -120.5 -116t-162.5 -41q-132 0 -226.5 73.5t-94.5 198.5q0 69 21.5 122.5t60.5 86.5t83 55t101.5 32t101.5 13.5t96 3.5h132q0 109 -47.5 154t-157.5 45q-155 0 -285 -100l-6 204q166 70 317 70q204 0 300 -94.5t96 -292.5v-117 q0 -194 14 -434zM664 424h-144q-37 0 -72 -7t-71 -23t-58 -49.5t-22 -80.5q0 -53 41 -81.5t108 -28.5q108 0 163 76.5t55 193.5z" />
<glyph unicode="b" horiz-adv-x="1095" d="M578 164q53 0 93 27t62.5 71.5t33.5 94.5t11 104q0 52 -9 99.5t-29.5 93t-61 73t-96.5 27.5q-72 0 -123 -47.5t-71.5 -111.5t-20.5 -134q0 -47 11.5 -95.5t34.5 -95.5t66 -76.5t99 -29.5zM358 0h-231v1335h238v-536h4q91 137 274 137q100 -1 176 -37.5t120.5 -101.5 t66.5 -146t22 -178q0 -102 -20 -187t-63.5 -155.5t-120.5 -110.5t-181 -40q-176 0 -281 133h-4v-113z" />
<glyph unicode="c" horiz-adv-x="798" d="M748 207l10 -199q-88 -28 -238 -28q-216 0 -334 134t-118 349q0 207 118.5 341t325.5 134q133 0 231 -31l-22 -188q-75 35 -162 35q-109 0 -175.5 -81t-66.5 -210q0 -131 64 -215t184 -84q42 0 95.5 13.5t87.5 29.5z" />
<glyph unicode="d" horiz-adv-x="1095" d="M518 164q59 0 102.5 29.5t66 77t32.5 95t10 95.5q0 70 -21 134.5t-71.5 111.5t-122.5 47q-53 0 -92.5 -25.5t-61.5 -69t-32.5 -93.5t-10.5 -105q0 -48 9 -95t30 -95t63 -77.5t99 -29.5zM969 0h-232v102h-4q-107 -122 -272 -122q-101 0 -178.5 37.5t-123.5 103 t-68.5 148.5t-22.5 180q0 80 12 149.5t40.5 133t72 108.5t110 71.5t150.5 26.5q172 0 274 -129h4v526h238v-1335z" />
<glyph unicode="e" d="M297 549h405q-3 94 -50.5 153t-143.5 62q-96 -3 -150.5 -61t-60.5 -154zM862 246v-195q-127 -71 -315 -71q-235 0 -357 121t-122 354q0 211 110.5 347t315.5 136q100 0 176.5 -27t125 -74t79 -118t43 -151.5t12.5 -182.5h-633q9 -108 80 -169.5t180 -61.5q153 0 305 92z " />
<glyph unicode="f" horiz-adv-x="700" d="M453 0h-238v741h-176v177h176v126q0 142 75.5 225.5t215.5 86.5q98 -3 174 -27l-18 -180q-40 22 -105 22q-56 0 -80 -40.5t-24 -100.5v-112h209v-177h-209v-741z" />
<glyph unicode="g" horiz-adv-x="1095" d="M530 754q-109 -3 -161 -83t-52 -196q0 -111 54.5 -201t148.5 -90q106 0 158.5 80t52.5 205q0 126 -50.5 204t-150.5 81zM731 145h-4q-38 -64 -115 -104.5t-170 -40.5q-95 0 -168.5 37t-117.5 100.5t-66 143t-22 170.5q0 71 13 138.5t42.5 131.5t73 111.5t111 76.5 t149.5 29q179 0 280 -145h4v125h228v-830q0 -55 -6 -103.5t-21 -98t-38.5 -90.5t-61.5 -77t-87.5 -60.5t-118 -39t-151.5 -14.5q-154 0 -317 61l20 205q57 -31 133 -55t134 -27q56 2 100.5 15.5t73 32t49 50.5t30.5 58t15.5 67t6.5 66.5t1 66.5z" />
<glyph unicode="h" horiz-adv-x="1095" d="M969 0h-238v489q0 34 -0.5 52t-3.5 51t-8.5 51.5t-17 42.5t-27.5 36.5t-41.5 22t-57.5 9.5q-57 0 -100 -29.5t-65.5 -77t-33.5 -97.5t-11 -101v-449h-238v1335h238v-542h4q97 145 288 145q156 0 234 -97t78 -263v-578z" />
<glyph unicode="i" horiz-adv-x="503" d="M371 0h-238v918h238v-918zM371 1083h-238v228h238v-228z" />
<glyph unicode="j" horiz-adv-x="503" d="M-23 -381l9 170q93 3 120 35.5t27 140.5v953h238v-986q0 -68 -12.5 -121.5t-42 -101t-86 -74.5t-136.5 -30q-68 0 -117 14zM371 1083h-238v228h238v-228z" />
<glyph unicode="k" d="M983 0h-303l-305 444h-4v-444h-238v1335h238v-784h4l284 367h281l-342 -410z" />
<glyph unicode="l" horiz-adv-x="503" d="M371 0h-238v1335h238v-1335z" />
<glyph unicode="m" horiz-adv-x="1591" d="M1468 0h-237v565q0 30 -1.5 51.5t-9.5 49.5t-22 45.5t-40.5 30t-63.5 12.5q-179 0 -179 -310v-444h-239v565q0 32 -1.5 53.5t-9 49.5t-21 45t-40 29t-63.5 12q-179 0 -179 -310v-444h-239v918h223v-130h4q55 78 127 114t146 36q191 0 270 -162q40 79 117.5 120.5 t169.5 41.5q82 0 139.5 -25.5t89.5 -75t45.5 -112.5t13.5 -147v-578z" />
<glyph unicode="n" horiz-adv-x="1095" d="M969 0h-238v489q0 34 -0.5 52t-3.5 51t-8.5 51.5t-17 42.5t-27.5 36.5t-41.5 22t-57.5 9.5q-57 0 -100 -29.5t-65.5 -77t-33.5 -97.5t-11 -101v-449h-238v918h225v-125h4q112 145 293 145q160 0 240 -96t80 -264v-578z" />
<glyph unicode="o" horiz-adv-x="1095" d="M547 -20q-223 3 -351 136t-128 337q0 222 135 353.5t344 131.5q214 0 347.5 -130t133.5 -355q0 -206 -127.5 -338t-353.5 -135zM547 754q-109 -3 -169.5 -82.5t-60.5 -190.5q0 -139 57 -228t173 -89q231 0 231 317q0 117 -59 193.5t-172 79.5z" />
<glyph unicode="p" horiz-adv-x="1095" d="M365 -373h-238v1291h227v-132h4q81 152 285 152q100 0 176 -37t120.5 -102.5t66.5 -147t22 -178.5q0 -81 -12 -151.5t-40.5 -134.5t-72.5 -109t-111.5 -71.5t-154.5 -26.5q-79 0 -143 28.5t-125 95.5h-4v-477zM578 164q53 0 93 27t62.5 71.5t33.5 94.5t11 104 q0 52 -9 99.5t-29.5 93t-61 73t-96.5 27.5q-72 0 -123 -47.5t-71.5 -111.5t-20.5 -134q0 -47 11.5 -95.5t34.5 -95.5t66 -76.5t99 -29.5z" />
<glyph unicode="q" horiz-adv-x="1095" d="M969 -373h-238v477h-4q-59 -68 -123 -96t-145 -28t-146.5 25.5t-110.5 69t-75.5 103.5t-44.5 128t-14 143q0 80 12 149.5t41 133t73 108.5t111.5 71.5t153.5 26.5q196 0 278 -152h4v132h228v-1291zM518 164q59 0 102.5 29.5t66 77t32.5 95t10 95.5q0 70 -21 134.5 t-71.5 111.5t-122.5 47q-53 0 -92.5 -25.5t-61.5 -69t-32.5 -93.5t-10.5 -105q0 -49 10.5 -97.5t32 -95t62.5 -75.5t96 -29z" />
<glyph unicode="r" horiz-adv-x="700" d="M371 0h-238v918h211v-209h4q9 75 80 150.5t170 78.5q41 0 74 -8v-240q-37 21 -107 21q-40 0 -71.5 -15t-51.5 -36t-34.5 -57t-21 -64.5t-10.5 -72.5t-4.5 -68t-0.5 -62v-336z" />
<glyph unicode="s" horiz-adv-x="798" d="M78 18l14 195q112 -59 234 -59q34 0 67.5 9t61.5 35t28 66q0 69 -65 94q-15 6 -54.5 16.5t-74 20t-77.5 31t-73 49t-50.5 73.5t-20.5 105q0 94 50.5 160t130 95.5t179.5 29.5q130 0 260 -35l-16 -178q-112 39 -213 39q-137 0 -142 -102q2 -32 27.5 -52t106.5 -45 q157 -47 218.5 -109.5t61.5 -176.5q0 -79 -32 -138.5t-87 -93.5t-121.5 -50.5t-142.5 -16.5q-146 0 -270 38z" />
<glyph unicode="t" horiz-adv-x="700" d="M664 188l8 -188q-67 -20 -176 -20q-142 0 -216.5 75.5t-74.5 220.5v465h-176v177h176v182l239 76v-258h211v-177h-211v-438q0 -60 27 -99.5t84 -39.5q69 0 109 24z" />
<glyph unicode="u" horiz-adv-x="1095" d="M969 0h-226v125h-4q-117 -145 -301 -145q-155 0 -233 99t-78 259v580h238v-490q0 -132 34.5 -198t120.5 -66q62 0 106.5 30.5t65.5 80t30 97t9 97.5v449h238v-918z" />
<glyph unicode="v" d="M635 0h-270l-340 918h258l227 -668h4l219 668h240z" />
<glyph unicode="w" horiz-adv-x="1591" d="M1286 0h-282l-199 700h-4l-195 -700h-272l-309 918h251l203 -680h4l185 680h278l199 -680h4l190 680h228z" />
<glyph unicode="x" d="M977 0h-285l-205 342l-204 -342h-263l316 481l-285 437h283l180 -300l176 300h252l-274 -437z" />
<glyph unicode="y" d="M631 6l-56 -145q-47 -122 -123.5 -189t-201.5 -67q-88 0 -170 24l16 176q43 -16 123 -16q73 0 114.5 46.5t41.5 117.5l-350 965h262l221 -670h4l219 670h244z" />
<glyph unicode="z" horiz-adv-x="899" d="M829 0h-761v195l464 536h-444v187h725v-197l-455 -537h471v-184z" />
<glyph unicode="{" horiz-adv-x="600" d="M580 -250h-134q-111 0 -187.5 64t-76.5 178v301q0 95 -41 136.5t-104 41.5v154q61 0 103 42.5t42 123.5v315q0 116 77.5 178t186.5 62h134v-144h-80q-56 0 -73 -31t-17 -98v-307q0 -59 -19.5 -102.5t-51.5 -66.5t-63.5 -33.5t-64.5 -12.5v-4q43 -4 75.5 -15.5t62 -35.5 t45.5 -69t16 -108v-296q0 -65 17 -97t73 -32h80v-144z" />
<glyph unicode="|" horiz-adv-x="403" d="M295 -444h-186v1779h186v-1779z" />
<glyph unicode="}" horiz-adv-x="600" d="M156 -250h-133v144h79q55 0 71.5 30t16.5 99v296q0 61 19 107t50 71t64.5 37.5t67.5 12.5v4q-19 2 -37.5 5.5t-50.5 18t-55 35.5t-40.5 62t-17.5 94v307q0 69 -15.5 99t-72.5 30h-79v144h133q112 0 187 -61.5t75 -178.5v-315q0 -86 44.5 -126t102.5 -40v-154 q-61 0 -104 -43.5t-43 -134.5v-301q0 -117 -76 -179.5t-186 -62.5z" />
<glyph unicode="~" horiz-adv-x="1075" d="M885 608l63 -155q-35 -67 -87 -112.5t-116 -45.5q-59 0 -116 19.5t-95.5 43t-89.5 43t-100 19.5q-57 0 -92 -34.5t-62 -92.5l-63 156q32 65 87 110t128 45q52 0 109 -19t98 -42.5t93 -42.5t95 -19q71 0 148 127z" />
<glyph horiz-adv-x="1024" />
<glyph unicode="&#xa1;" horiz-adv-x="700" d="M485 -326h-272l37 877h196zM473 668h-250v250h250v-250z" />
<glyph unicode="&#xa2;" d="M463 258l151 496q-96 -12 -152 -90.5t-56 -200.5q0 -125 57 -205zM838 207l10 -199q-92 -28 -240 -28q-68 0 -123 14l-49 -154h-102l57 185q-233 125 -233 438q0 136 50.5 242.5t152 169.5t239.5 63q26 0 72 -4l45 147h104l-49 -161q29 -3 59 -13l-20 -188q-39 20 -94 29 l-172 -562q49 -22 108 -22q43 0 98.5 13.5t86.5 29.5z" />
<glyph unicode="&#xa3;" d="M903 0h-803v184h156v391h-135v142h135v149q0 175 122 286.5t306 111.5q140 0 231 -31l-12 -195q-92 29 -172 29q-114 0 -169.5 -66.5t-55.5 -164.5v-119h262v-142h-262v-391h397v-184z" />
<glyph unicode="&#xa4;" d="M963 266l-107 -104l-102 102q-121 -80 -254 -80q-135 0 -256 80l-103 -102l-104 104l102 105q-82 119 -82 254q0 138 82 254l-102 104l104 104l103 -102q119 82 256 82q135 0 254 -82l102 102l107 -104l-105 -104q82 -113 82 -252q0 -137 -82 -256zM745 625 q-3 110 -71.5 181.5t-173.5 74.5q-105 -3 -174 -74.5t-72 -181.5q3 -108 72.5 -180.5t173.5 -75.5q104 3 173 75.5t72 180.5z" />
<glyph unicode="&#xa5;" d="M618 0h-239v262h-260v141h260v89l-14 22h-246v143h178l-311 586h252l268 -549l274 549h234l-309 -586h176v-143h-250l-13 -22v-89h263v-141h-263v-262z" />
<glyph unicode="&#xa6;" horiz-adv-x="403" d="M295 578h-186v624h186v-624zM295 -311h-186v622h186v-622z" />
<glyph unicode="&#xa7;" d="M434 424l109 -41q45 -18 86 -43q63 53 63 133q0 32 -13.5 56.5t-42 43.5t-57 31.5t-75.5 28.5l-133 49q-27 -17 -45.5 -55t-18.5 -76q0 -37 37.5 -71.5t89.5 -55.5zM145 -190l15 202q162 -69 299 -69q180 0 180 123q0 34 -38.5 65.5t-96 56t-124.5 57t-124.5 66t-96 85 t-38.5 112.5q0 161 137 240q-125 82 -125 210q0 75 34.5 135t91 96.5t124 55.5t139.5 19q142 0 285 -35l-21 -195q-116 45 -254 45q-170 0 -170 -121q0 -68 80 -102q34 -15 91.5 -35.5t99.5 -35.5t91 -41t80.5 -55t53 -75t21.5 -104q0 -149 -134 -227q121 -71 121 -203 q0 -102 -59.5 -177.5t-147 -110t-186.5 -34.5q-150 0 -328 52z" />
<glyph unicode="&#xa8;" horiz-adv-x="503" d="M539 1083h-207v207h207v-207zM172 1083h-207v207h207v-207z" />
<glyph unicode="&#xa9;" horiz-adv-x="1431" d="M1174 621q-3 224 -132 361.5t-325 137.5q-201 0 -330 -139t-129 -360q0 -220 131.5 -360t327.5 -140q193 0 323.5 138.5t133.5 361.5zM905 518h148q-21 -129 -108.5 -199.5t-203.5 -70.5q-163 0 -263.5 109t-100.5 270q0 167 97 273t263 106q125 0 207 -68.5t103 -198.5 h-142q-23 123 -168 123q-88 0 -136 -64t-48 -169q0 -101 53 -170.5t135 -69.5q66 0 112 33.5t52 95.5zM717 -20q-175 2 -322.5 87.5t-234 232.5t-86.5 321q0 176 85.5 324t233.5 233.5t324 85.5q133 0 252.5 -50t204.5 -136t134.5 -205t49.5 -252q0 -131 -50.5 -249.5 t-136 -203.5t-204.5 -136t-250 -52z" />
<glyph unicode="&#xaa;" horiz-adv-x="651" d="M596 698h-154v74h-4q-40 -88 -168 -88q-52 0 -98.5 14t-82.5 51t-36 91q0 39 11.5 69.5t29 51t45 35.5t53.5 23t60 12.5t59.5 5.5t57.5 1h65q0 69 -30.5 94t-98.5 25q-98 0 -186 -55v117q91 45 213 45q129 0 192.5 -57t63.5 -179q0 -194 8 -330zM436 944h-108 q-25 -3 -43 -7.5t-37.5 -14t-30 -28t-10.5 -44.5q0 -29 28.5 -44t63.5 -15q66 0 101.5 42.5t35.5 110.5z" />
<glyph unicode="&#xab;" d="M922 115h-224l-211 364l211 365h224l-195 -365zM526 115h-225l-209 364l209 365h225l-196 -365z" />
<glyph unicode="&#xac;" horiz-adv-x="1075" d="M989 193h-184v358h-719v186h903v-544z" />
<glyph unicode="&#xad;" horiz-adv-x="600" d="M535 381h-469v197h469v-197z" />
<glyph unicode="&#xae;" horiz-adv-x="1431" d="M717 -20q-175 2 -322.5 87.5t-234 232.5t-86.5 321q0 176 85.5 324t233.5 233.5t324 85.5q133 0 252.5 -50t204.5 -136t134.5 -205t49.5 -252q0 -131 -50.5 -249.5t-136 -203.5t-204.5 -136t-250 -52zM1174 621q-3 224 -132 361.5t-325 137.5q-201 0 -330 -139t-129 -360 q0 -220 131.5 -360t327.5 -140q193 0 323.5 138.5t133.5 361.5zM1012 266h-158l-170 303h-74v-303h-151v715h268q142 0 213.5 -48.5t71.5 -164.5q0 -176 -189 -190zM610 686h125q62 0 92.5 19t30.5 75q0 27 -12 44.5t-35 25t-43 10t-49 2.5h-109v-176z" />
<glyph unicode="&#xaf;" horiz-adv-x="503" d="M508 1100h-512v143h512v-143z" />
<glyph unicode="&#xb0;" horiz-adv-x="720" d="M516 977q-3 72 -43 113.5t-113 44.5q-75 -3 -116 -46.5t-41 -111.5q0 -69 43.5 -112.5t113.5 -43.5t111.5 42t44.5 114zM645 977q0 -118 -84 -201.5t-203 -83.5q-118 0 -201 83t-83 202t83 203t201 84t202.5 -84t84.5 -203z" />
<glyph unicode="&#xb1;" horiz-adv-x="1075" d="M989 481h-358v-237h-185v237h-360v185h360v235h185v-235h358v-185zM989 0h-903v184h903v-184z" />
<glyph unicode="&#xb2;" horiz-adv-x="651" d="M596 502h-539v145q87 39 207.5 171t120.5 200q0 43 -28 67.5t-81 24.5q-103 0 -186 -59l-12 153q114 60 239 60q58 0 105.5 -12t86.5 -37.5t61 -71.5t22 -109q0 -57 -34 -120.5t-84 -113.5t-98.5 -87t-84.5 -54v-4h305v-153z" />
<glyph unicode="&#xb3;" horiz-adv-x="651" d="M442 893v-2q77 -9 117.5 -55.5t40.5 -116.5q0 -50 -20.5 -89.5t-54 -65t-77 -42t-87 -23.5t-87.5 -7q-103 0 -223 30l8 148q101 -37 193 -37q51 0 94.5 23.5t46.5 68.5q-3 50 -37 68t-92 18q-50 0 -100 -4v149q27 -2 104 -2q45 0 83.5 21.5t41.5 62.5q-3 51 -30.5 66.5 t-81.5 15.5q-121 0 -195 -45l-8 146q119 43 229 43q48 0 95 -9.5t90.5 -29.5t70.5 -58t27 -88q0 -145 -148 -186z" />
<glyph unicode="&#xb4;" horiz-adv-x="503" d="M203 1040h-148l148 260h243z" />
<glyph unicode="&#xb5;" horiz-adv-x="1095" d="M969 0h-226v125h-4q-24 -57 -79 -101t-119 -44q-115 0 -172 59h-4v-412h-238v1291h238v-490q0 -132 34.5 -198t120.5 -66q62 0 106.5 30.5t65.5 80t30 97t9 97.5v449h238v-918z" />
<glyph unicode="&#xb6;" horiz-adv-x="1112" d="M956 -221h-184v1321h-190v-1321h-185v827q-389 9 -389 312q0 176 110.5 250.5t315.5 74.5h522v-1464z" />
<glyph unicode="&#xb7;" horiz-adv-x="503" d="M252 643q62 -3 99.5 -39t37.5 -98q0 -60 -38.5 -98.5t-98.5 -38.5q-63 0 -100 40t-37 97q0 58 36 96t101 41z" />
<glyph unicode="&#xb8;" horiz-adv-x="503" d="M137 -358l37 96q9 -1 50.5 -14t72.5 -13q40 0 67 15.5t27 48.5q0 30 -19.5 46.5t-49.5 16.5q-45 0 -82 -16l-27 47l104 131h113l-82 -94l2 -4q38 10 74 10q61 0 100.5 -30t42.5 -93q-3 -92 -67.5 -138t-155.5 -46q-120 0 -207 37z" />
<glyph unicode="&#xb9;" horiz-adv-x="651" d="M440 502h-184v569l-137 -104l-94 108l247 178h168v-751z" />
<glyph unicode="&#xba;" horiz-adv-x="714" d="M674 975q-3 -134 -92 -212.5t-224 -78.5q-136 0 -226.5 79t-90.5 212q0 131 91.5 210t227.5 79q134 0 222.5 -78t91.5 -211zM365 1157q-78 -3 -114 -52.5t-36 -129.5q0 -184 145 -184q140 0 140 184q0 78 -32 128.5t-103 53.5z" />
<glyph unicode="&#xbb;" d="M299 115h-223l194 364l-194 365h223l211 -365zM696 115h-223l195 364l-195 365h223l211 -365z" />
<glyph unicode="&#xbc;" horiz-adv-x="1492" d="M442 -39h-145l741 1321h146zM455 502h-187v569l-135 -104l-94 108l248 178h168v-751zM1171 283v305h-4l-202 -305h206zM1356 0h-185v141h-358v152l322 459h221v-469h86v-142h-86v-141z" />
<glyph unicode="&#xbd;" horiz-adv-x="1492" d="M389 -39h-147l743 1321h145zM436 502h-184v569l-137 -106l-92 108l245 180h168v-751zM1430 0h-537v145q80 35 204 168.5t124 202.5q0 43 -28 67.5t-81 24.5q-105 0 -188 -59l-13 153q117 60 242 60q124 0 198 -54.5t74 -175.5q0 -56 -33.5 -118.5t-82.5 -113.5t-98 -89.5 t-87 -56.5h306v-154z" />
<glyph unicode="&#xbe;" horiz-adv-x="1492" d="M463 -39h-146l742 1321h147zM420 893v-2q80 -9 120 -55t40 -117q0 -62 -31.5 -108.5t-82.5 -71t-104.5 -36t-107.5 -11.5q-105 0 -225 30l10 148q98 -37 203 -37q51 0 94.5 24.5t46.5 67.5q-5 86 -141 86q-49 0 -99 -4v149q27 -2 103 -2q56 0 95 21.5t42 62.5 q-3 49 -35 65.5t-90 16.5q-118 0 -192 -45l-11 146q119 43 230 43q47 0 92.5 -9t90 -28.5t72 -58t27.5 -89.5q0 -145 -147 -186zM1192 283v305l-203 -305h203zM1378 0h-186v141h-356v152l319 459h223v-469h86v-142h-86v-141z" />
<glyph unicode="&#xbf;" horiz-adv-x="899" d="M784 -90l21 -199q-132 -57 -352 -57q-75 0 -145 18.5t-129.5 55t-95.5 99.5t-36 144q0 91 51 164q34 49 87 110.5t84.5 98.5t56 93t24.5 116h217q0 -88 -27 -159t-65 -117t-76 -86t-65 -88t-27 -103q0 -44 19.5 -77.5t52 -51t66 -25.5t67.5 -8q146 0 272 72zM582 668 h-250v250h250v-250z" />
<glyph unicode="&#xc0;" horiz-adv-x="1292" d="M821 481l-180 512h-4l-178 -512h362zM1274 0h-277l-106 285h-504l-108 -285h-259l484 1243h280zM842 1321h-148l-243 260h243z" />
<glyph unicode="&#xc1;" horiz-adv-x="1292" d="M821 481l-180 512h-4l-178 -512h362zM1274 0h-277l-106 285h-504l-108 -285h-259l484 1243h280zM598 1321h-147l147 260h244z" />
<glyph unicode="&#xc2;" horiz-adv-x="1292" d="M821 481l-180 512h-4l-178 -512h362zM1274 0h-277l-106 285h-504l-108 -285h-259l484 1243h280zM927 1321h-157l-121 154l-125 -154h-160l197 260h180z" />
<glyph unicode="&#xc3;" horiz-adv-x="1292" d="M821 481l-180 512h-4l-178 -512h362zM1274 0h-277l-106 285h-504l-108 -285h-259l484 1243h280zM864 1579h97q0 -95 -46 -155t-129 -60q-54 0 -106 15.5t-95.5 32t-72.5 18.5q-44 -3 -65 -25t-21 -53h-96q3 84 53 149.5t129 65.5q52 0 142 -37t130 -37q39 0 59.5 23 t20.5 63z" />
<glyph unicode="&#xc4;" horiz-adv-x="1292" d="M821 481l-180 512h-4l-178 -512h362zM1274 0h-277l-106 285h-504l-108 -285h-259l484 1243h280zM932 1364h-207v207h207v-207zM565 1364h-207v207h207v-207z" />
<glyph unicode="&#xc5;" horiz-adv-x="1292" d="M821 481l-180 512h-4l-178 -512h362zM1274 0h-277l-106 285h-504l-108 -285h-259l484 1243h280zM835 1467q0 -78 -56 -133.5t-134 -55.5t-133.5 55.5t-55.5 133.5t55.5 134t133.5 56t134 -56t56 -134zM739 1467q0 38 -28 66t-66 28t-65 -28t-27 -66t27 -65.5t65 -27.5 t66 27.5t28 65.5z" />
<glyph unicode="&#xc6;" horiz-adv-x="1689" d="M899 481l-41 576h-4l-307 -576h352zM1595 0h-657l-20 285h-478l-153 -285h-267l680 1243h887v-196h-481l24 -306h418v-196h-395l27 -348h415v-197z" />
<glyph unicode="&#xc7;" horiz-adv-x="1095" d="M471 -358l35 96q79 -23 125 -27q37 0 65.5 15.5t28.5 48.5q0 30 -20 46.5t-50 16.5q-44 0 -84 -16l-26 47l96 121q-272 26 -412.5 179t-140.5 431q0 326 174 495t508 169q135 0 281 -52l-19 -211q-68 39 -128.5 52.5t-139.5 13.5q-128 0 -223.5 -60t-144 -161t-48.5 -228 q0 -196 114.5 -320t307.5 -124q71 0 150.5 15t121.5 36l11 -207q-129 -38 -283 -38h-25l-65 -74l4 -4q38 10 74 10q63 0 100.5 -30.5t40.5 -92.5q-3 -92 -67.5 -138t-155.5 -46q-125 0 -205 37z" />
<glyph unicode="&#xc8;" d="M885 0h-738v1243h734v-196h-484v-306h443v-196h-443v-348h488v-197zM694 1321h-147l-244 260h244z" />
<glyph unicode="&#xc9;" d="M885 0h-738v1243h734v-196h-484v-306h443v-196h-443v-348h488v-197zM451 1321h-148l148 260h243z" />
<glyph unicode="&#xca;" d="M885 0h-738v1243h734v-196h-484v-306h443v-196h-443v-348h488v-197zM780 1321h-157l-121 154l-125 -154h-160l197 260h180z" />
<glyph unicode="&#xcb;" d="M885 0h-738v1243h734v-196h-484v-306h443v-196h-443v-348h488v-197zM784 1364h-206v207h206v-207zM418 1364h-207v207h207v-207z" />
<glyph unicode="&#xcc;" horiz-adv-x="503" d="M377 0h-250v1243h250v-1243zM446 1321h-147l-244 260h244z" />
<glyph unicode="&#xcd;" horiz-adv-x="503" d="M377 0h-250v1243h250v-1243zM203 1321h-148l148 260h243z" />
<glyph unicode="&#xce;" horiz-adv-x="503" d="M377 0h-250v1243h250v-1243zM532 1321h-157l-121 154l-125 -154h-160l197 260h180z" />
<glyph unicode="&#xcf;" horiz-adv-x="503" d="M377 0h-250v1243h250v-1243zM539 1364h-207v207h207v-207zM172 1364h-207v207h207v-207z" />
<glyph unicode="&#xd0;" horiz-adv-x="1292" d="M487 0h-340v598h-112v154h112v491h340q719 0 719 -622q0 -621 -719 -621zM397 197h140q109 0 201 48.5t150 147t58 228.5q0 100 -34 182t-91 134.5t-130 81t-154 28.5h-140v-295h260v-154h-260v-401z" />
<glyph unicode="&#xd1;" horiz-adv-x="1292" d="M1157 0h-303l-477 930h-2v-930h-240v1243h307l473 -930h5v930h237v-1243zM864 1579h96q0 -95 -45.5 -155t-128.5 -60q-54 0 -106 15.5t-95.5 32t-72.5 18.5q-44 -3 -65 -25t-21 -53h-96q3 84 53 149.5t129 65.5q52 0 142 -37t130 -37q39 0 59.5 23t20.5 63z" />
<glyph unicode="&#xd2;" horiz-adv-x="1392" d="M696 -20q-292 3 -450 176.5t-158 468.5t158.5 467t449.5 172q290 0 449.5 -173t159.5 -466q0 -295 -160 -468.5t-449 -176.5zM696 1067q-88 -1 -156.5 -38.5t-109.5 -100.5t-61.5 -140t-20.5 -163q0 -88 20 -166t60 -143.5t109 -103.5t159 -38t159 37.5t109 102.5 t60 143.5t20 167.5q0 88 -20 164.5t-60 139.5t-109 100t-159 38zM890 1321h-147l-244 260h244z" />
<glyph unicode="&#xd3;" horiz-adv-x="1392" d="M696 -20q-292 3 -450 176.5t-158 468.5t158.5 467t449.5 172q290 0 449.5 -173t159.5 -466q0 -295 -160 -468.5t-449 -176.5zM696 1067q-88 -1 -156.5 -38.5t-109.5 -100.5t-61.5 -140t-20.5 -163q0 -88 20 -166t60 -143.5t109 -103.5t159 -38t159 37.5t109 102.5 t60 143.5t20 167.5q0 88 -20 164.5t-60 139.5t-109 100t-159 38zM647 1321h-147l147 260h244z" />
<glyph unicode="&#xd4;" horiz-adv-x="1392" d="M696 -20q-292 3 -450 176.5t-158 468.5t158.5 467t449.5 172q290 0 449.5 -173t159.5 -466q0 -295 -160 -468.5t-449 -176.5zM696 1067q-88 -1 -156.5 -38.5t-109.5 -100.5t-61.5 -140t-20.5 -163q0 -88 20 -166t60 -143.5t109 -103.5t159 -38t159 37.5t109 102.5 t60 143.5t20 167.5q0 88 -20 164.5t-60 139.5t-109 100t-159 38zM977 1321h-158l-121 154l-125 -154h-159l196 260h181z" />
<glyph unicode="&#xd5;" horiz-adv-x="1392" d="M696 -20q-292 3 -450 176.5t-158 468.5t158.5 467t449.5 172q290 0 449.5 -173t159.5 -466q0 -295 -160 -468.5t-449 -176.5zM696 1067q-88 -1 -156.5 -38.5t-109.5 -100.5t-61.5 -140t-20.5 -163q0 -88 20 -166t60 -143.5t109 -103.5t159 -38t159 37.5t109 102.5 t60 143.5t20 167.5q0 88 -20 164.5t-60 139.5t-109 100t-159 38zM915 1579h97q0 -95 -45.5 -155t-128.5 -60q-54 0 -106.5 15.5t-96 32t-72.5 18.5q-44 -3 -65 -25t-21 -53h-96q3 84 53 149.5t129 65.5q52 0 142.5 -37t130.5 -37q39 0 59 22.5t20 63.5z" />
<glyph unicode="&#xd6;" horiz-adv-x="1392" d="M696 -20q-292 3 -450 176.5t-158 468.5t158.5 467t449.5 172q290 0 449.5 -173t159.5 -466q0 -295 -160 -468.5t-449 -176.5zM696 1067q-88 -1 -156.5 -38.5t-109.5 -100.5t-61.5 -140t-20.5 -163q0 -88 20 -166t60 -143.5t109 -103.5t159 -38t159 37.5t109 102.5 t60 143.5t20 167.5q0 88 -20 164.5t-60 139.5t-109 100t-159 38zM983 1364h-207v207h207v-207zM616 1364h-206v207h206v-207z" />
<glyph unicode="&#xd7;" horiz-adv-x="1075" d="M954 162l-129 -127l-286 289l-289 -289l-129 127l289 289l-289 288l129 127l289 -288l286 288l129 -127l-290 -288z" />
<glyph unicode="&#xd8;" horiz-adv-x="1392" d="M410 346l499 643q-81 78 -213 78q-88 0 -156.5 -38t-109.5 -101.5t-61.5 -140.5t-20.5 -162q0 -155 62 -279zM975 905l-502 -645q89 -86 223 -86q90 0 159 37.5t109 102.5t60 143.5t20 167.5q0 160 -69 280zM231 -51l-79 63l104 135q-168 171 -168 478q0 295 158.5 467 t449.5 172q207 0 353 -95l96 125l80 -65l-97 -125q177 -177 177 -479q0 -294 -159.5 -469.5t-449.5 -175.5q-224 0 -362 100z" />
<glyph unicode="&#xd9;" horiz-adv-x="1292" d="M905 524v719h248v-794q0 -233 -122.5 -351t-364.5 -118q-265 0 -396 112t-131 357v794h250v-719q0 -350 258 -350t258 350zM841 1321h-147l-244 260h244z" />
<glyph unicode="&#xda;" horiz-adv-x="1292" d="M905 524v719h248v-794q0 -233 -122.5 -351t-364.5 -118q-265 0 -396 112t-131 357v794h250v-719q0 -350 258 -350t258 350zM598 1321h-147l147 260h244z" />
<glyph unicode="&#xdb;" horiz-adv-x="1292" d="M905 524v719h248v-794q0 -233 -122.5 -351t-364.5 -118q-265 0 -396 112t-131 357v794h250v-719q0 -350 258 -350t258 350zM928 1321h-158l-121 154l-125 -154h-159l196 260h180z" />
<glyph unicode="&#xdc;" horiz-adv-x="1292" d="M905 524v719h248v-794q0 -233 -122.5 -351t-364.5 -118q-265 0 -396 112t-131 357v794h250v-719q0 -350 258 -350t258 350zM932 1364h-207v207h207v-207zM565 1364h-207v207h207v-207z" />
<glyph unicode="&#xdd;" horiz-adv-x="1196" d="M727 0h-250v492l-452 751h290l293 -522l299 522h264l-444 -751v-492zM549 1321h-148l148 260h243z" />
<glyph unicode="&#xde;" d="M377 0h-250v1243h250v-207h65q86 0 158.5 -10.5t140.5 -37t115.5 -68t76 -108.5t28.5 -153t-24.5 -153.5t-67 -112.5t-104 -74.5t-131.5 -42t-153 -12.5h-104v-264zM377 461h86q237 0 237 184q0 100 -64 147.5t-173 47.5h-86v-379z" />
<glyph unicode="&#xdf;" horiz-adv-x="1095" d="M467 8l6 187q47 -21 125 -21q20 0 40.5 3.5t49 18t49.5 38t36 69t15 105.5q0 49 -15.5 85.5t-40.5 58t-62 34.5t-75 17.5t-85 4.5v187q103 0 159 48t56 144q0 82 -39 131.5t-119 52.5q-67 -2 -113 -40.5t-64.5 -93t-18.5 -119.5v-918h-238v899q0 209 111.5 333t324.5 124 q78 0 149.5 -21t129.5 -61t92.5 -104t34.5 -142q0 -247 -238 -315v-2q137 -19 219 -110t82 -218q0 -183 -113.5 -288t-297.5 -105q-89 0 -160 18z" />
<glyph unicode="&#xe0;" d="M895 0h-209q-10 92 -10 137h-4q-43 -75 -120.5 -116t-162.5 -41q-132 0 -226.5 73.5t-94.5 198.5q0 69 21.5 122.5t60.5 86.5t83 55t101.5 32t101.5 13.5t96 3.5h132q0 109 -47.5 154t-157.5 45q-155 0 -285 -100l-6 204q166 70 317 70q204 0 300 -94.5t96 -292.5v-117 q0 -194 14 -434zM664 424h-144q-37 0 -72 -7t-71 -23t-58 -49.5t-22 -80.5q0 -53 41 -81.5t108 -28.5q108 0 163 76.5t55 193.5zM694 1040h-147l-244 260h244z" />
<glyph unicode="&#xe1;" d="M895 0h-209q-10 92 -10 137h-4q-43 -75 -120.5 -116t-162.5 -41q-132 0 -226.5 73.5t-94.5 198.5q0 69 21.5 122.5t60.5 86.5t83 55t101.5 32t101.5 13.5t96 3.5h132q0 109 -47.5 154t-157.5 45q-155 0 -285 -100l-6 204q166 70 317 70q204 0 300 -94.5t96 -292.5v-117 q0 -194 14 -434zM664 424h-144q-37 0 -72 -7t-71 -23t-58 -49.5t-22 -80.5q0 -53 41 -81.5t108 -28.5q108 0 163 76.5t55 193.5zM451 1040h-148l148 260h243z" />
<glyph unicode="&#xe2;" d="M895 0h-209q-10 92 -10 137h-4q-43 -75 -120.5 -116t-162.5 -41q-132 0 -226.5 73.5t-94.5 198.5q0 69 21.5 122.5t60.5 86.5t83 55t101.5 32t101.5 13.5t96 3.5h132q0 109 -47.5 154t-157.5 45q-155 0 -285 -100l-6 204q166 70 317 70q204 0 300 -94.5t96 -292.5v-117 q0 -194 14 -434zM664 424h-144q-37 0 -72 -7t-71 -23t-58 -49.5t-22 -80.5q0 -53 41 -81.5t108 -28.5q108 0 163 76.5t55 193.5zM780 1040h-157l-121 154l-125 -154h-160l197 260h180z" />
<glyph unicode="&#xe3;" d="M895 0h-209q-10 92 -10 137h-4q-43 -75 -120.5 -116t-162.5 -41q-132 0 -226.5 73.5t-94.5 198.5q0 69 21.5 122.5t60.5 86.5t83 55t101.5 32t101.5 13.5t96 3.5h132q0 109 -47.5 154t-157.5 45q-155 0 -285 -100l-6 204q166 70 317 70q204 0 300 -94.5t96 -292.5v-117 q0 -194 14 -434zM664 424h-144q-37 0 -72 -7t-71 -23t-58 -49.5t-22 -80.5q0 -53 41 -81.5t108 -28.5q108 0 163 76.5t55 193.5zM717 1300h96q0 -95 -45.5 -155t-128.5 -60q-54 0 -106 15.5t-95.5 32t-72.5 18.5q-44 -3 -65 -25t-21 -53h-97q3 84 53.5 149.5t129.5 65.5 q52 0 142 -37t130 -37q39 0 59.5 23t20.5 63z" />
<glyph unicode="&#xe4;" d="M895 0h-209q-10 92 -10 137h-4q-43 -75 -120.5 -116t-162.5 -41q-132 0 -226.5 73.5t-94.5 198.5q0 69 21.5 122.5t60.5 86.5t83 55t101.5 32t101.5 13.5t96 3.5h132q0 109 -47.5 154t-157.5 45q-155 0 -285 -100l-6 204q166 70 317 70q204 0 300 -94.5t96 -292.5v-117 q0 -194 14 -434zM664 424h-144q-37 0 -72 -7t-71 -23t-58 -49.5t-22 -80.5q0 -53 41 -81.5t108 -28.5q108 0 163 76.5t55 193.5zM785 1083h-207v207h207v-207zM418 1083h-207v207h207v-207z" />
<glyph unicode="&#xe5;" d="M895 0h-209q-10 92 -10 137h-4q-43 -75 -120.5 -116t-162.5 -41q-132 0 -226.5 73.5t-94.5 198.5q0 69 21.5 122.5t60.5 86.5t83 55t101.5 32t101.5 13.5t96 3.5h132q0 109 -47.5 154t-157.5 45q-155 0 -285 -100l-6 204q166 70 317 70q204 0 300 -94.5t96 -292.5v-117 q0 -194 14 -434zM664 424h-144q-37 0 -72 -7t-71 -23t-58 -49.5t-22 -80.5q0 -53 41 -81.5t108 -28.5q108 0 163 76.5t55 193.5zM688 1188q0 -78 -56 -133.5t-134 -55.5t-133.5 55.5t-55.5 133.5t55.5 134t133.5 56t134 -56t56 -134zM592 1188q0 38 -28 66t-66 28t-65 -28 t-27 -66t27 -65t65 -27t66 27t28 65z" />
<glyph unicode="&#xe6;" horiz-adv-x="1591" d="M893 549h401q0 94 -45 153t-141 62q-101 -3 -158 -62t-57 -153zM1460 246v-195q-127 -71 -315 -71q-266 0 -385 163q-46 -76 -138.5 -119.5t-191.5 -43.5q-57 0 -107 8t-98 28t-82 50t-54.5 77.5t-20.5 108.5q0 74 28.5 131t73 91t107 55t122.5 28.5t127 7.5h138 q0 108 -48 154.5t-163 46.5q-150 0 -283 -102l-8 204q163 70 325 70q111 0 183.5 -22.5t128.5 -94.5q105 117 313 117q97 -1 170 -31.5t118 -80.5t73 -123t38.5 -149t10.5 -169h-629q3 -109 74.5 -170t187.5 -61q153 0 305 92zM664 424h-103q-131 0 -197.5 -47.5 t-66.5 -124.5q0 -41 37 -69.5t98 -28.5q119 0 175.5 67t56.5 203z" />
<glyph unicode="&#xe7;" horiz-adv-x="798" d="M285 -358l37 96q62 -27 124 -27q37 0 66 15.5t29 48.5q0 29 -20.5 46t-51.5 17q-45 0 -82 -16l-27 47l93 115q-187 24 -286 151.5t-99 327.5q0 207 118.5 341t325.5 134q133 0 231 -31l-22 -188q-75 35 -162 35q-109 0 -175.5 -81t-66.5 -210q0 -131 64 -215t184 -84 q42 0 95.5 13.5t87.5 29.5l10 -199q-76 -25 -197 -28l-65 -74l4 -4q33 10 71 10q61 0 101 -30.5t43 -92.5q-3 -92 -67.5 -138t-155.5 -46q-120 0 -207 37z" />
<glyph unicode="&#xe8;" d="M297 549h405q-3 94 -50.5 153t-143.5 62q-96 -3 -150.5 -61t-60.5 -154zM862 246v-195q-127 -71 -315 -71q-235 0 -357 121t-122 354q0 211 110.5 347t315.5 136q100 0 176.5 -27t125 -74t79 -118t43 -151.5t12.5 -182.5h-633q9 -108 80 -169.5t180 -61.5q153 0 305 92z M694 1040h-147l-244 260h244z" />
<glyph unicode="&#xe9;" d="M297 549h405q-3 94 -50.5 153t-143.5 62q-96 -3 -150.5 -61t-60.5 -154zM862 246v-195q-127 -71 -315 -71q-235 0 -357 121t-122 354q0 211 110.5 347t315.5 136q100 0 176.5 -27t125 -74t79 -118t43 -151.5t12.5 -182.5h-633q9 -108 80 -169.5t180 -61.5q153 0 305 92z M451 1040h-148l148 260h243z" />
<glyph unicode="&#xea;" d="M297 549h405q-3 94 -50.5 153t-143.5 62q-96 -3 -150.5 -61t-60.5 -154zM862 246v-195q-127 -71 -315 -71q-235 0 -357 121t-122 354q0 211 110.5 347t315.5 136q100 0 176.5 -27t125 -74t79 -118t43 -151.5t12.5 -182.5h-633q9 -108 80 -169.5t180 -61.5q153 0 305 92z M780 1040h-157l-121 154l-125 -154h-160l197 260h180z" />
<glyph unicode="&#xeb;" d="M297 549h405q-3 94 -50.5 153t-143.5 62q-96 -3 -150.5 -61t-60.5 -154zM862 246v-195q-127 -71 -315 -71q-235 0 -357 121t-122 354q0 211 110.5 347t315.5 136q100 0 176.5 -27t125 -74t79 -118t43 -151.5t12.5 -182.5h-633q9 -108 80 -169.5t180 -61.5q153 0 305 92z M784 1083h-206v207h206v-207zM418 1083h-207v207h207v-207z" />
<glyph unicode="&#xec;" horiz-adv-x="495" d="M367 0h-238v918h238v-918zM444 1040h-147l-244 260h244z" />
<glyph unicode="&#xed;" horiz-adv-x="495" d="M367 0h-238v918h238v-918zM201 1040h-148l148 260h243z" />
<glyph unicode="&#xee;" horiz-adv-x="495" d="M367 0h-238v918h238v-918zM530 1040h-157l-121 154l-125 -154h-160l197 260h180z" />
<glyph unicode="&#xef;" horiz-adv-x="495" d="M367 0h-238v918h238v-918zM535 1083h-207v207h207v-207zM168 1083h-207v207h207v-207z" />
<glyph unicode="&#xf0;" horiz-adv-x="1095" d="M549 164q78 0 130 41t72.5 102t20.5 139q0 50 -12 98t-37 91t-69.5 69.5t-102.5 26.5q-57 0 -103.5 -26.5t-74 -69t-42 -91.5t-14.5 -98t13 -96.5t39.5 -90t73 -69t106.5 -26.5zM702 860h3q-67 130 -189 219l-164 -106l-90 84l148 96q-93 57 -177 86l109 121 q112 -41 225 -105l164 105l92 -84l-147 -94q167 -122 256.5 -298.5t89.5 -387.5q0 -240 -118 -378t-357 -138q-222 0 -350.5 134t-128.5 339q0 127 46.5 231t142.5 169t226 65q133 0 219 -58z" />
<glyph unicode="&#xf1;" horiz-adv-x="1095" d="M969 0h-238v489q0 34 -0.5 52t-3.5 51t-8.5 51.5t-17 42.5t-27.5 36.5t-41.5 22t-57.5 9.5q-57 0 -100 -29.5t-65.5 -77t-33.5 -97.5t-11 -101v-449h-238v918h225v-125h4q112 145 293 145q160 0 240 -96t80 -264v-578zM766 1300h96q0 -95 -45.5 -155t-128.5 -60 q-54 0 -106 15.5t-95.5 32t-72.5 18.5q-44 -3 -65 -25t-21 -53h-96q3 84 53 149.5t129 65.5q52 0 142 -37t130 -37q39 0 59.5 23t20.5 63z" />
<glyph unicode="&#xf2;" horiz-adv-x="1095" d="M547 -20q-223 3 -351 136t-128 337q0 222 135 353.5t344 131.5q214 0 347.5 -130t133.5 -355q0 -206 -127.5 -338t-353.5 -135zM547 754q-109 -3 -169.5 -82.5t-60.5 -190.5q0 -139 57 -228t173 -89q231 0 231 317q0 117 -59 193.5t-172 79.5zM743 1040h-147l-244 260 h244z" />
<glyph unicode="&#xf3;" horiz-adv-x="1095" d="M547 -20q-223 3 -351 136t-128 337q0 222 135 353.5t344 131.5q214 0 347.5 -130t133.5 -355q0 -206 -127.5 -338t-353.5 -135zM547 754q-109 -3 -169.5 -82.5t-60.5 -190.5q0 -139 57 -228t173 -89q231 0 231 317q0 117 -59 193.5t-172 79.5zM500 1040h-148l148 260h243 z" />
<glyph unicode="&#xf4;" horiz-adv-x="1095" d="M547 -20q-223 3 -351 136t-128 337q0 222 135 353.5t344 131.5q214 0 347.5 -130t133.5 -355q0 -206 -127.5 -338t-353.5 -135zM547 754q-109 -3 -169.5 -82.5t-60.5 -190.5q0 -139 57 -228t173 -89q231 0 231 317q0 117 -59 193.5t-172 79.5zM829 1040h-157l-121 154 l-125 -154h-160l197 260h180z" />
<glyph unicode="&#xf5;" horiz-adv-x="1095" d="M547 -20q-223 3 -351 136t-128 337q0 222 135 353.5t344 131.5q214 0 347.5 -130t133.5 -355q0 -206 -127.5 -338t-353.5 -135zM547 754q-109 -3 -169.5 -82.5t-60.5 -190.5q0 -139 57 -228t173 -89q231 0 231 317q0 117 -59 193.5t-172 79.5zM766 1300h96 q0 -95 -45.5 -155t-128.5 -60q-54 0 -106 15.5t-95.5 32t-72.5 18.5q-44 -3 -65 -25t-21 -53h-97q3 84 53.5 149.5t129.5 65.5q52 0 142 -37t130 -37q39 0 59.5 23t20.5 63z" />
<glyph unicode="&#xf6;" horiz-adv-x="1095" d="M547 -20q-223 3 -351 136t-128 337q0 222 135 353.5t344 131.5q214 0 347.5 -130t133.5 -355q0 -206 -127.5 -338t-353.5 -135zM547 754q-109 -3 -169.5 -82.5t-60.5 -190.5q0 -139 57 -228t173 -89q231 0 231 317q0 117 -59 193.5t-172 79.5zM834 1083h-207v207h207 v-207zM467 1083h-207v207h207v-207z" />
<glyph unicode="&#xf7;" horiz-adv-x="1075" d="M989 358h-903v185h903v-185zM539 942q62 -3 99.5 -39t37.5 -98q0 -60 -38.5 -98.5t-98.5 -38.5q-63 0 -100.5 40t-37.5 97q0 58 36.5 96t101.5 41zM539 -41q-66 3 -102 41.5t-36 95.5q0 58 35 96t103 41q63 -3 100 -39.5t37 -97.5q0 -60 -37.5 -97t-99.5 -40z" />
<glyph unicode="&#xf8;" horiz-adv-x="1095" d="M350 299l338 406q-52 46 -141 49q-109 -3 -169.5 -82.5t-60.5 -190.5q0 -103 33 -182zM745 631l-342 -414q53 -53 144 -53q231 0 231 317q0 85 -33 150zM170 -61l-74 57l101 119q-129 132 -129 338q0 222 135 353.5t344 131.5q153 0 274 -76l97 117l71 -59l-96 -115 q135 -132 135 -352q0 -204 -128.5 -338.5t-352.5 -134.5q-167 0 -279 75z" />
<glyph unicode="&#xf9;" horiz-adv-x="1095" d="M969 0h-226v125h-4q-117 -145 -301 -145q-155 0 -233 99t-78 259v580h238v-490q0 -132 34.5 -198t120.5 -66q62 0 106.5 30.5t65.5 80t30 97t9 97.5v449h238v-918zM743 1040h-147l-244 260h244z" />
<glyph unicode="&#xfa;" horiz-adv-x="1095" d="M969 0h-226v125h-4q-117 -145 -301 -145q-155 0 -233 99t-78 259v580h238v-490q0 -132 34.5 -198t120.5 -66q62 0 106.5 30.5t65.5 80t30 97t9 97.5v449h238v-918zM500 1040h-148l148 260h243z" />
<glyph unicode="&#xfb;" horiz-adv-x="1095" d="M969 0h-226v125h-4q-117 -145 -301 -145q-155 0 -233 99t-78 259v580h238v-490q0 -132 34.5 -198t120.5 -66q62 0 106.5 30.5t65.5 80t30 97t9 97.5v449h238v-918zM829 1040h-157l-121 154l-125 -154h-160l197 260h180z" />
<glyph unicode="&#xfc;" horiz-adv-x="1095" d="M969 0h-226v125h-4q-117 -145 -301 -145q-155 0 -233 99t-78 259v580h238v-490q0 -132 34.5 -198t120.5 -66q62 0 106.5 30.5t65.5 80t30 97t9 97.5v449h238v-918zM834 1083h-207v207h207v-207zM467 1083h-207v207h207v-207z" />
<glyph unicode="&#xfd;" d="M631 6l-56 -145q-47 -122 -123.5 -189t-201.5 -67q-88 0 -170 24l16 176q43 -16 123 -16q73 0 114.5 46.5t41.5 117.5l-350 965h262l221 -670h4l219 670h244zM451 1040h-148l148 260h243z" />
<glyph unicode="&#xfe;" horiz-adv-x="1095" d="M365 -373h-238v1708h238v-538h4q36 62 105.5 99.5t168.5 37.5q100 0 176 -36.5t120.5 -101t66.5 -145.5t22 -178q0 -102 -20 -187t-63.5 -155.5t-120.5 -110.5t-181 -40q-175 0 -274 122h-4v-475zM578 164q54 0 94.5 27t62.5 71.5t32.5 94.5t10.5 104q0 52 -9 99.5 t-29.5 93t-61 73t-96.5 27.5q-72 0 -123 -47.5t-71.5 -111.5t-20.5 -134q0 -47 11.5 -95.5t34.5 -95.5t66 -76.5t99 -29.5z" />
<glyph unicode="&#xff;" d="M631 6l-56 -145q-47 -122 -123.5 -189t-201.5 -67q-88 0 -170 24l16 176q43 -16 123 -16q73 0 114.5 46.5t41.5 117.5l-350 965h262l221 -670h4l219 670h244zM784 1083h-206v207h206v-207zM418 1083h-207v207h207v-207z" />
<glyph unicode="&#x131;" horiz-adv-x="495" d="M367 0h-238v918h238v-918z" />
<glyph unicode="&#x141;" horiz-adv-x="890" d="M877 0h-734v432l-129 -78v164l129 78v647h250v-500l299 179v-164l-299 -178v-383h484v-197z" />
<glyph unicode="&#x142;" horiz-adv-x="495" d="M367 0h-238v522l-129 -78v164l129 78v649h238v-508l129 76v-162l-129 -77v-664z" />
<glyph unicode="&#x152;" horiz-adv-x="1687" d="M877 197v850q-39 6 -132 10q-191 -3 -294 -122t-103 -321q0 -193 105.5 -311.5t298.5 -118.5q71 0 125 13zM1595 0h-471q-66 0 -199.5 -5t-199.5 -5q-637 0 -637 624q0 318 170.5 478.5t499.5 160.5q60 0 182 -5t184 -5h463v-196h-463v-306h424v-196h-424v-348h471v-197z " />
<glyph unicode="&#x153;" horiz-adv-x="1687" d="M547 154q67 0 115 26t73.5 71t37 95t11.5 109q0 63 -12 115.5t-38.5 97.5t-74 70.5t-112.5 25.5q-59 0 -105 -28t-72 -74t-39.5 -98t-13.5 -107q0 -60 12 -111.5t37.5 -96t71.5 -70t109 -25.5zM1548 244l8 -195q-128 -69 -286 -69q-271 0 -373 149q-113 -149 -336 -149 q-229 0 -361 133t-132 340q0 221 135 353t344 132q217 0 342 -158q52 79 136 118.5t183 39.5q98 0 172 -30.5t118.5 -80.5t72.5 -124t38.5 -150t10.5 -168h-598q6 -116 75 -173.5t179 -57.5q150 0 272 90zM1022 549h371q-7 210 -183 215q-90 -3 -139 -64t-49 -151z" />
<glyph unicode="&#x160;" d="M127 27l23 225q140 -78 282 -78q51 0 99 15.5t84 53.5t36 91q0 87 -84 131q-35 18 -95 43.5t-104.5 44.5t-97 51t-85.5 67.5t-56 90.5t-23 123q0 98 36 173t98 119t137.5 65.5t163.5 21.5q165 0 299 -45l-25 -205q-121 53 -252 53q-35 0 -67 -8t-62.5 -26t-48.5 -53.5 t-18 -84.5q0 -24 12 -45t26 -34.5t44 -30t44.5 -23t49.5 -21.5l98 -41q64 -27 109 -55t83.5 -68.5t58 -96t19.5 -126.5q0 -79 -24.5 -142.5t-66.5 -106t-101.5 -71.5t-127 -41.5t-145.5 -12.5q-89 0 -149 10t-170 37zM594 1321h-180l-197 260h160l125 -151l121 151h157z" />
<glyph unicode="&#x161;" horiz-adv-x="798" d="M78 18l14 195q112 -59 234 -59q34 0 67.5 9t61.5 35t28 66q0 69 -65 94q-15 6 -54.5 16.5t-74 20t-77.5 31t-73 49t-50.5 73.5t-20.5 105q0 94 50.5 160t130 95.5t179.5 29.5q130 0 260 -35l-16 -178q-112 39 -213 39q-137 0 -142 -102q2 -32 27.5 -52t106.5 -45 q157 -47 218.5 -109.5t61.5 -176.5q0 -79 -32 -138.5t-87 -93.5t-121.5 -50.5t-142.5 -16.5q-146 0 -270 38zM494 1040h-181l-196 260h159l125 -151l121 151h158z" />
<glyph unicode="&#x178;" horiz-adv-x="1196" d="M727 0h-250v492l-452 751h290l293 -522l299 522h264l-444 -751v-492zM885 1364h-207v207h207v-207zM518 1364h-207v207h207v-207z" />
<glyph unicode="&#x17d;" d="M930 0h-862v203l583 844h-559v196h826v-205l-590 -841h602v-197zM594 1321h-180l-197 260h160l125 -151l121 151h157z" />
<glyph unicode="&#x17e;" horiz-adv-x="899" d="M829 0h-761v195l464 536h-444v187h725v-197l-455 -537h471v-184zM545 1040h-180l-197 260h160l125 -151l120 151h158z" />
<glyph unicode="&#x192;" d="M18 -377l35 176q52 -10 94 -10q105 0 127 164l125 627h-200l26 143h203l55 248q34 150 111.5 221.5t232.5 71.5q70 0 150 -17l-31 -188q-5 1 -26 8t-37.5 9.5t-40.5 2.5q-54 0 -82 -37.5t-43 -109.5l-43 -209h215l-23 -143h-221l-108 -586q-8 -41 -14.5 -70.5t-20.5 -73 t-30 -75t-42 -65.5t-56.5 -55.5t-74.5 -35.5t-96 -14q-119 0 -185 18z" />
<glyph unicode="&#x2c6;" horiz-adv-x="503" d="M532 1040h-157l-121 154l-125 -154h-160l197 260h180z" />
<glyph unicode="&#x2c7;" horiz-adv-x="495" d="M342 1040h-180l-197 260h160l125 -151l121 151h157z" />
<glyph unicode="&#x2d8;" horiz-adv-x="495" d="M428 1298h109q-9 -121 -90.5 -195.5t-200.5 -74.5q-117 0 -198.5 75t-90.5 195h111q36 -141 178 -141q143 0 182 141z" />
<glyph unicode="&#x2d9;" horiz-adv-x="495" d="M350 1083h-207v207h207v-207z" />
<glyph unicode="&#x2da;" horiz-adv-x="495" d="M438 1219q0 -78 -56 -133.5t-134 -55.5t-133.5 55.5t-55.5 133.5t55.5 134t133.5 56t134 -56t56 -134zM342 1219q0 38 -28 66t-66 28t-65 -28t-27 -66t27 -65.5t65 -27.5t66 27.5t28 65.5z" />
<glyph unicode="&#x2db;" horiz-adv-x="495" d="M434 -240l72 -14q-32 -73 -83.5 -107t-139.5 -34q-79 0 -126.5 41.5t-47.5 117.5q0 73 64 134t149 102h88q-33 -26 -54 -45t-45.5 -47.5t-36.5 -60t-12 -66.5t18 -57.5t54 -22.5q27 1 54.5 18t45.5 41z" />
<glyph unicode="&#x2dc;" horiz-adv-x="503" d="M471 1300h96q0 -95 -45.5 -155t-128.5 -60q-54 0 -106 15.5t-95.5 32t-72.5 18.5q-44 -3 -65 -25t-21 -53h-96q3 84 53 149.5t129 65.5q52 0 142 -37t130 -37q39 0 59.5 23t20.5 63z" />
<glyph unicode="&#x2dd;" horiz-adv-x="495" d="M373 1040h-148l148 260h245zM23 1038h-148l148 260h243z" />
<glyph unicode="&#x3a9;" horiz-adv-x="1347" d="M1243 0h-485v334q136 28 210 131.5t74 247.5q0 166 -106 280.5t-272 114.5t-273.5 -116t-107.5 -283q0 -148 71 -244t209 -131v-334h-481v162h326v84q-159 51 -242.5 178t-83.5 299q0 160 78.5 289.5t210.5 200.5t291 71q161 0 293.5 -69t210 -197.5t77.5 -290.5 q0 -172 -85 -303.5t-243 -177.5v-84h328v-162z" />
<glyph unicode="&#x3c0;" horiz-adv-x="1048" d="M1008 158v-135q-75 -35 -148 -35q-47 0 -80 12t-52 31t-29.5 50.5t-13.5 62.5t-3 75v469h-377v-688h-178v688h-125v172h999v-172h-139v-450q0 -23 1.5 -36.5t7.5 -29.5t20.5 -23.5t38.5 -7.5q32 0 78 17z" />
<glyph unicode="&#xe00;" horiz-adv-x="399" />
<glyph unicode="&#xe01;" horiz-adv-x="1087" d="M1010 0h-246v670q0 98 -58.5 153.5t-156.5 55.5q-159 0 -234 -115l115 -148q-86 -57 -86 -157v-459h-246v440q0 48 23.5 99t62.5 84q1 0 -29.5 33.5t-60.5 67.5l-31 34q42 130 175.5 220.5t310.5 90.5q197 0 329 -111.5t132 -279.5v-678z" />
<glyph unicode="&#xe02;" horiz-adv-x="1005" d="M682 381v666h246v-664q0 -397 -420 -397q-210 0 -321 100.5t-111 265.5v117q0 55 26.5 107t59.5 85t68.5 75t48.5 75v8q0 27 -29 27h-172v201h221q101 0 157 -54t56 -139v-35q0 -38 -19.5 -76t-47.5 -70t-56 -63.5t-47.5 -68.5t-19.5 -72v-92q0 -201 186 -201 q89 0 131.5 45.5t42.5 159.5z" />
<glyph unicode="&#xe03;" horiz-adv-x="1019" d="M696 381v666h246v-664q0 -397 -422 -397q-210 0 -322 101t-112 265v133q0 40 18.5 79t46.5 70.5t56.5 60t53 60t32.5 58.5v31q0 7 -7.5 13.5t-17.5 6.5q-32 0 -53 -53l-170 76v172l145 -74q61 72 142 72q89 0 140.5 -54t51.5 -139v-30q0 -45 -20 -87t-48 -74t-56 -61.5 t-48 -63t-20 -65.5v-106q0 -201 188 -201q89 0 132.5 45.5t43.5 159.5z" />
<glyph unicode="&#xe04;" horiz-adv-x="1110" d="M1032 0h-246v678q0 96 -61.5 148.5t-169.5 52.5q-105 0 -168 -53t-63 -148v-193h4q27 32 70.5 55t86.5 23h162v-205h-188q-57 0 -96 -38t-39 -95v-225h-246v678q0 175 131 283t346 108q214 0 345.5 -108t131.5 -283v-678z" />
<glyph unicode="&#xe05;" horiz-adv-x="1130" d="M1053 0h-246v756q0 51 -18 77.5t-56 40.5l-160 -108l-174 108q-37 -13 -56 -40t-19 -78v-271h4q27 32 70.5 55t86.5 23h162v-205h-188q-57 0 -96 -38t-39 -95v-225h-246v721q0 144 78.5 239.5t224.5 122.5l190 -135q179 133 179 135q144 -26 223.5 -121.5t79.5 -240.5 v-721z" />
<glyph unicode="&#xe06;" horiz-adv-x="1128" d="M805 406v643h246v-643q0 -196 -107.5 -308t-298.5 -112q-153 0 -256 137v-123h-250v485q0 49 27.5 98t61 82t67.5 74t43 74v31q0 7 -7.5 13.5t-17.5 6.5q-32 0 -53 -53l-170 76v172l146 -74q61 72 141 72q89 0 140.5 -54t51.5 -139v-30q0 -45 -19 -87t-46 -74t-54 -61.5 t-46 -63t-19 -65.5v-127q36 -78 97 -128t126 -50q197 0 197 228z" />
<glyph unicode="&#xe07;" horiz-adv-x="1069" d="M520 0h-215l-301 1063h254l246 -868h35q91 0 154 102t63 264q0 305 -191 305q-81 0 -133 -24l-6 198q86 29 166 29q182 0 297 -135.5t115 -372.5q0 -256 -136.5 -408.5t-347.5 -152.5z" />
<glyph unicode="&#xe08;" horiz-adv-x="1056" d="M510 0h-174l-90 375q-10 41 -49 41h-78v198h143q77 0 128.5 -40.5t70.5 -112.5l69 -268q93 3 155.5 95.5t62.5 254.5q0 178 -65.5 253.5t-203.5 75.5q-81 0 -173 -45.5t-159 -113.5l-100 170q186 186 432 186t379 -135.5t133 -390.5q0 -244 -133.5 -393.5t-347.5 -149.5z " />
<glyph unicode="&#xe09;" horiz-adv-x="1087" d="M1010 0h-246v121q-40 -63 -116 -99t-156 -36q-170 0 -264.5 91.5t-94.5 237.5v54q0 24 -20 24h-64v207h150q77 0 126.5 -50.5t49.5 -127.5v-84q0 -78 38 -120t113 -42q78 0 145.5 52.5t92.5 131.5v222q0 138 -64 212t-184 74q-89 0 -197 -44t-172 -107l-100 166 q85 83 208 134.5t251 51.5q239 0 371.5 -125t132.5 -344v-600z" />
<glyph unicode="&#xe0a;" horiz-adv-x="1009" d="M932 508v-125q0 -194 -105.5 -295.5t-318.5 -101.5q-210 0 -321 100.5t-111 265.5v117q0 55 26.5 107t59.5 85t68.5 75t48.5 75v8q0 27 -29 27h-172v201h221q101 0 157 -54t56 -139v-35q0 -38 -19.5 -76t-47.5 -70t-56 -63.5t-47.5 -68.5t-19.5 -72v-92q0 -201 186 -201 q90 0 134 46t44 159v156q0 39 -22.5 65.5t-53.5 26.5h-47l-28 102l180 316h258l-197 -297q73 -25 114.5 -88t41.5 -154z" />
<glyph unicode="&#xe0b;" horiz-adv-x="1024" d="M946 508v-125q0 -194 -105.5 -295.5t-318.5 -101.5q-210 0 -321 100.5t-111 265.5v133q0 40 18.5 79t46.5 70.5t56.5 60t53 60t32.5 58.5v31q0 7 -7.5 13.5t-17.5 6.5q-32 0 -53 -53l-170 76v172l146 -74q61 72 141 72q89 0 140.5 -54t51.5 -139v-30q0 -45 -20 -87 t-48 -74t-56 -61.5t-48 -63t-20 -65.5v-106q0 -201 186 -201q90 0 134 46t44 159v156q0 39 -22 65.5t-53 26.5h-47l-29 102l180 316h258l-196 -297q73 -25 114 -88t41 -154z" />
<glyph unicode="&#xe0c;" horiz-adv-x="1687" d="M1001 0h-245v670q0 99 -54 154t-151 55q-161 0 -236 -115l115 -148q-86 -57 -86 -157v-238q0 -31 29 -31h78v-190h-152q-82 0 -141.5 59.5t-59.5 143.5v237q0 48 23.5 99t62.5 84q1 0 -29.5 33.5t-60.5 67.5l-31 34q41 130 176 220.5t312 90.5q197 0 323.5 -110 t126.5 -275v-328q35 -87 89 -132.5t108 -45.5q96 0 131 52t35 176v641h246v-641q0 -205 -81 -312.5t-265 -107.5q-75 0 -150 38.5t-113 98.5v-123z" />
<glyph unicode="&#xe0d;" horiz-adv-x="1687" d="M1364 117v47q-27 -56 -101 -96.5t-147 -40.5q-162 0 -261 93t-99 257v291q0 100 -54 155.5t-151 55.5q-161 0 -236 -115l115 -148q-86 -57 -86 -157v-238q0 -31 29 -31h78v-190h-152q-82 0 -141.5 59.5t-59.5 143.5v237q0 48 23.5 99t62.5 84q1 0 -29.5 33.5t-60.5 67.5 l-31 34q41 130 176 220.5t312 90.5q196 0 323 -110.5t127 -276.5v-281q0 -192 162 -192q68 0 124.5 51t76.5 135v652h246v-902q0 -203 -123 -320.5t-340 -117.5q-152 0 -305 66l26 192q59 -32 137 -50.5t140 -18.5q95 0 157 60.5t62 160.5z" />
<glyph unicode="&#xe0e;" horiz-adv-x="1126" d="M1049 -410h-263q-92 86 -215 86q-169 0 -286 -100l-64 186q61 60 143.5 91.5t153.5 31.5q74 0 154 -35t131 -94v914q0 98 -58.5 153.5t-156.5 55.5q-159 0 -234 -115l115 -148q-82 -54 -82 -157v-264q0 -76 -54.5 -135.5t-125.5 -59.5h-162v190h76q20 0 20 23v227 q0 49 22 99.5t60 83.5q1 0 -29.5 33.5t-61.5 67.5l-30 34q42 130 175.5 220.5t310.5 90.5q198 0 329.5 -111t131.5 -280v-1088z" />
<glyph unicode="&#xe0f;" horiz-adv-x="1126" d="M1049 -410h-211l-195 150q-21 -71 -92.5 -116.5t-149.5 -45.5q-133 0 -245 76l47 188q41 -32 96 -52.5t102 -20.5q65 0 119 61t58 139l225 -155v856q0 98 -58.5 153.5t-156.5 55.5q-159 0 -234 -115l115 -148q-82 -54 -82 -157v-264q0 -76 -54.5 -135.5t-125.5 -59.5 h-162v190h76q20 0 20 23v227q0 49 22 99.5t60 83.5q1 0 -29.5 33.5t-61.5 67.5l-30 34q42 130 175.5 220.5t310.5 90.5q198 0 329.5 -111t131.5 -280v-1088z" />
<glyph unicode="&#xe10;" horiz-adv-x="1073" d="M510 0h-174l-90 375q-10 41 -49 41h-78v198h143q77 0 128.5 -40.5t70.5 -112.5l69 -268q93 3 157.5 97.5t64.5 256.5q0 171 -70.5 255.5t-202.5 84.5q-81 0 -173 -46t-159 -114l-100 170q186 186 432 186q143 0 240 -57l106 113h285l-231 -232q116 -132 116 -360 q0 -244 -135.5 -395.5t-349.5 -151.5zM936 -410h-277q-56 0 -108 27t-78 66q-32 -40 -86 -66.5t-111 -26.5h-155v183h164q106 0 186 110q83 -110 180 -110h68v104h217v-287z" />
<glyph unicode="&#xe11;" horiz-adv-x="1136" d="M1059 0h-246v717q0 77 -31.5 114t-76.5 37q-70 0 -131 -43.5t-99.5 -109t-60 -138t-21.5 -135.5v-442h-246v434q0 71 18.5 127.5t64.5 135.5t55 96v51q0 6 -10.5 13t-20.5 7q-32 0 -53 -53l-170 76v172l145 -74q61 72 141 72q63 0 106 -33.5t52 -87.5q32 52 102 89.5 t136 37.5q165 0 255.5 -94t90.5 -279v-690z" />
<glyph unicode="&#xe12;" horiz-adv-x="1802" d="M1116 0h-246v733q0 109 -90 133l-108 -100q-119 100 -121 100q-94 -29 -148.5 -114.5t-54.5 -219.5q0 -85 24.5 -153t63.5 -106.5t80.5 -58t81.5 -19.5q75 0 129 26v-198q-63 -29 -168 -29q-83 0 -164 36t-146.5 102t-106 170.5t-40.5 229.5q0 234 125 377.5t342 165.5 l103 -102l108 102q156 -15 246 -114t90 -246v-359q35 -87 89 -132.5t108 -45.5q96 0 131 52t35 176v643h245v-643q0 -205 -81 -312.5t-265 -107.5q-75 0 -149.5 38.5t-112.5 98.5v-123z" />
<glyph unicode="&#xe13;" horiz-adv-x="1691" d="M1614 0h-248v121q-39 -64 -112.5 -99.5t-159.5 -35.5q-156 0 -247 99.5t-91 260.5v324q0 99 -54 154t-151 55q-161 0 -236 -115l115 -148q-86 -57 -86 -157v-238q0 -31 29 -31h78v-190h-152q-82 0 -141.5 59.5t-59.5 143.5v237q0 48 23.5 99t62.5 84q1 0 -29.5 33.5 t-60.5 67.5l-31 34q41 130 176 220.5t312 90.5q196 0 323 -110.5t127 -276.5v-293q0 -111 45 -162t136 -51q56 0 110 56t76 135v680h246v-1047z" />
<glyph unicode="&#xe14;" horiz-adv-x="1181" d="M1104 0h-246v623q0 112 -70.5 179.5t-185.5 67.5q-129 0 -209 -94.5t-80 -263.5q0 -89 21 -155t54.5 -99t68 -48t69.5 -15q77 0 172 34v-198q-81 -37 -186 -37q-86 0 -163.5 31t-142 91.5t-102.5 162.5t-38 233q0 240 148.5 398.5t387.5 158.5q229 0 365.5 -128.5 t136.5 -319.5v-621z" />
<glyph unicode="&#xe15;" horiz-adv-x="1218" d="M1141 0h-246v733q0 109 -90 133l-135 -127q-154 127 -156 127q-94 -29 -148.5 -114.5t-54.5 -219.5q0 -85 24 -153t61.5 -106.5t78 -58t78.5 -19.5q63 0 158 34v-198q-81 -37 -189 -37q-66 0 -131.5 22.5t-124 68t-103 108.5t-71 150.5t-26.5 188.5q0 235 124.5 378 t341.5 165l138 -129l135 129q156 -15 246 -114t90 -246v-715z" />
<glyph unicode="&#xe16;" horiz-adv-x="1089" d="M1012 0h-246v670q0 99 -56 154t-153 55q-79 0 -143 -30.5t-99 -84.5l115 -148q-86 -57 -86 -157v-238q0 -31 29 -31h78v-190h-152q-82 0 -141.5 59.5t-59.5 143.5v237q0 48 23.5 99t62.5 84q1 0 -29.5 33.5t-60.5 67.5l-31 34q41 129 179 220t315 91q197 0 326 -111 t129 -276v-682z" />
<glyph unicode="&#xe17;" horiz-adv-x="1083" d="M1006 0h-246v672q0 198 -174 198q-183 0 -262 -172v-698h-246v1047h246v-109q114 131 288 131q189 0 291.5 -103.5t102.5 -297.5v-668z" />
<glyph unicode="&#xe18;" horiz-adv-x="1028" d="M971 389v-43q0 -186 -108.5 -273t-344.5 -87q-235 0 -343.5 91t-108.5 281v68h237v-68q0 -94 51.5 -138t163.5 -44q115 0 163 39t48 131v43q0 32 -18 54.5t-47 25.5l-322 29q-123 11 -199.5 85t-76.5 189q0 132 114.5 214.5t313.5 82.5q230 0 424 -98l-35 -203 q-71 44 -177.5 74t-195.5 30q-209 0 -209 -98q0 -36 20 -58.5t50 -25.5l346 -33q109 -11 181.5 -86t72.5 -182z" />
<glyph unicode="&#xe19;" horiz-adv-x="1079" d="M1001 0h-247v113q-42 -59 -111.5 -93t-153.5 -34q-188 0 -299.5 113t-111.5 313v635h246v-607q0 -264 217 -264q66 0 129 54t86 137v680h245v-1047z" />
<glyph unicode="&#xe1a;" horiz-adv-x="1101" d="M778 399v648h246v-648q0 -198 -127 -305.5t-346 -107.5t-346 107.5t-127 305.5v648h246v-648q0 -102 62.5 -162.5t164.5 -60.5t164.5 60.5t62.5 162.5z" />
<glyph unicode="&#xe1b;" horiz-adv-x="1101" d="M778 399v1008h246v-1008q0 -198 -127 -305.5t-346 -107.5t-346 107.5t-127 305.5v648h246v-648q0 -102 62.5 -162.5t164.5 -60.5t164.5 60.5t62.5 162.5z" />
<glyph unicode="&#xe1c;" horiz-adv-x="1185" d="M1108 0h-207l-307 508q-305 -508 -307 -508h-207v854q0 81 56.5 137t144.5 56h133v-205h-62q-30 0 -30 -31v-324q0 -16 -4 -48t-8 -55l-5 -24h6q31 115 56 156l172 289h110l170 -289q13 -24 26 -63t20 -66l7 -27h7q-13 78 -13 127v560h242v-1047z" />
<glyph unicode="&#xe1d;" horiz-adv-x="1185" d="M1108 0h-207l-307 508q-305 -508 -307 -508h-207v854q0 81 56.5 137t144.5 56h133v-205h-62q-30 0 -30 -31v-324q0 -16 -4 -48t-8 -55l-5 -24h6q31 115 56 156l172 289h110l170 -289q13 -24 26 -63t20 -66l7 -27h7q-13 78 -13 127v920h242v-1407z" />
<glyph unicode="&#xe1e;" horiz-adv-x="1265" d="M1034 0h-213l-188 547l-189 -547h-213l-211 1047h254l86 -521q4 -26 7 -67t3 -69l1 -28h8q13 126 31 177l157 456h131l156 -456q8 -23 16.5 -67t12.5 -77l4 -33h8q0 105 10 164l86 521h254z" />
<glyph unicode="&#xe1f;" horiz-adv-x="1275" d="M1034 0h-213l-188 547l-189 -547h-213l-211 1047h254l86 -521q4 -26 7 -67t3 -69l1 -28h8q13 126 31 177l157 456h131l156 -456q8 -23 16.5 -67t12.5 -77l4 -33h8q0 105 10 164l148 879h254z" />
<glyph unicode="&#xe20;" horiz-adv-x="1126" d="M1049 0h-246v670q0 98 -58.5 153.5t-156.5 55.5q-159 0 -234 -115l115 -148q-82 -54 -82 -157v-264q0 -76 -54.5 -135.5t-125.5 -59.5h-162v190h76q20 0 20 23v227q0 49 22 99.5t60 83.5q1 0 -29.5 33.5t-61.5 67.5l-30 34q42 130 175.5 220.5t310.5 90.5 q198 0 329.5 -111t131.5 -280v-678z" />
<glyph unicode="&#xe21;" horiz-adv-x="1081" d="M758 406v641h246v-641q0 -196 -107.5 -308t-298.5 -112q-81 0 -151.5 36.5t-118.5 100.5v-123h-250v1047h246v-691q38 -70 108 -124t129 -54q197 0 197 228z" />
<glyph unicode="&#xe22;" horiz-adv-x="1064" d="M741 389v658h246v-635q0 -426 -438 -426q-232 0 -352.5 85.5t-120.5 247.5q0 80 46 147t126 99v6q-71 23 -121.5 84t-50.5 140q0 114 75.5 186t194.5 72q104 0 189 -35l-27 -191q-50 23 -111 23q-36 0 -61 -22.5t-25 -59.5q0 -47 35 -73.5t82 -26.5h207l16 -193h-200 q-60 0 -98 -41t-38 -104q0 -75 62 -114.5t164 -39.5q200 0 200 213z" />
<glyph unicode="&#xe23;" horiz-adv-x="927" d="M72 82l30 207q80 -47 170 -77t156 -30q107 0 156 35.5t49 91.5q0 17 -5 30.5t-19 25.5t-24 19.5t-35.5 17t-37.5 14t-46 14.5t-46 14q-40 13 -57 19t-55 20t-56.5 23.5t-49.5 26.5t-47 32t-37.5 38t-31.5 46.5t-17.5 54t-7.5 64.5q0 131 105.5 216t275.5 85 q102 0 204 -27.5t173 -76.5l-37 -203q-159 110 -321 110q-80 0 -120 -27t-40 -75q0 -15 6 -28.5t22.5 -25.5t29 -20.5t41.5 -19.5t43.5 -16t50.5 -17q8 -3 12 -4q50 -16 75.5 -24.5t72 -27t72 -33.5t58.5 -40t50.5 -51t30 -62t12.5 -77q0 -156 -107 -247t-319 -91 q-210 0 -379 96z" />
<glyph unicode="&#xe24;" horiz-adv-x="1089" d="M1012 -410h-246v1080q0 99 -56 154t-153 55q-79 0 -143 -30.5t-99 -84.5l115 -148q-86 -57 -86 -157v-238q0 -31 29 -31h78v-190h-152q-82 0 -141.5 59.5t-59.5 143.5v237q0 48 23.5 99t62.5 84q1 0 -29.5 33.5t-60.5 67.5l-31 34q41 129 179 220t315 91q197 0 326 -111 t129 -276v-1092z" />
<glyph unicode="&#xe25;" horiz-adv-x="1050" d="M973 0h-246v453h-221q-106 0 -161.5 -37t-55.5 -107q0 -57 33.5 -91t95.5 -34q76 0 162 27l8 -197q-106 -28 -187 -28q-157 0 -254.5 93.5t-97.5 229.5q0 159 124 249.5t362 90.5h192v33q0 93 -50 142.5t-169 49.5q-95 0 -189 -44.5t-163 -110.5l-93 166q187 184 453 184 q221 0 339 -109.5t118 -310.5v-649z" />
<glyph unicode="&#xe26;" horiz-adv-x="1126" d="M1049 -410h-246v1080q0 98 -58.5 153.5t-156.5 55.5q-159 0 -234 -115l115 -148q-82 -54 -82 -157v-264q0 -76 -54.5 -135.5t-125.5 -59.5h-162v190h76q20 0 20 23v227q0 49 22 99.5t60 83.5q1 0 -29.5 33.5t-61.5 67.5l-30 34q42 130 175.5 220.5t310.5 90.5 q198 0 329.5 -111t131.5 -280v-1088z" />
<glyph unicode="&#xe27;" horiz-adv-x="1001" d="M45 98l53 191q77 -47 168.5 -78t149.5 -31q137 0 205.5 80t68.5 260q0 165 -76.5 256.5t-187.5 91.5q-87 0 -175 -32.5t-159 -83.5l-51 194q188 125 422 125q212 0 342.5 -149t130.5 -404q0 -254 -137 -394t-367 -140q-224 0 -387 114z" />
<glyph unicode="&#xe28;" horiz-adv-x="1138" d="M1032 0h-246v678q0 96 -61.5 148.5t-169.5 52.5q-105 0 -168 -53t-63 -148v-193h4q27 32 70.5 55t86.5 23h162v-205h-188q-57 0 -96 -38t-39 -95v-225h-246v678q0 175 131 283t346 108q108 0 197 -39l94 109h268l-182 -221q47 -41 73.5 -104t26.5 -136v-678z" />
<glyph unicode="&#xe29;" horiz-adv-x="1163" d="M1128 502h-96v-103q0 -198 -128 -305.5t-347 -107.5t-347 107.5t-128 305.5v648h246v-648q0 -112 61 -167.5t168 -55.5q106 0 167.5 55.5t61.5 167.5v103h-219v207h219v338h246v-338h148z" />
<glyph unicode="&#xe2a;" horiz-adv-x="1083" d="M977 0h-246v453h-221q-106 0 -161.5 -37t-55.5 -107q0 -57 33.5 -91t95.5 -34q76 0 162 27l8 -197q-106 -28 -186 -28q-157 0 -255 93.5t-98 229.5q0 159 124 249.5t362 90.5h192v33q0 93 -50 142.5t-169 49.5q-95 0 -189 -44.5t-163 -110.5l-92 166q187 184 452 184 q122 0 219 -51l92 108h269l-201 -225q78 -91 78 -252v-649z" />
<glyph unicode="&#xe2b;" horiz-adv-x="1036" d="M1040 0h-264l-151 459q-15 46 -51 83t-78 52l-172 -152v-442h-246v1047h246v-340l387 340h331l-383 -322q75 -37 127.5 -96.5t77.5 -130.5z" />
<glyph unicode="&#xe2c;" horiz-adv-x="1185" d="M1108 0h-207l-307 508q-305 -508 -307 -508h-207v1047h242v-560q0 -16 -4 -48t-8 -55l-5 -24h6q31 115 56 156l172 289h110l170 -289q13 -24 26 -63t20 -66l7 -27h7q-13 78 -13 127v410q0 38 -26 65t-58 27h-47l-28 103l180 315h258l-197 -297q74 -25 117 -88.5 t43 -153.5v-868z" />
<glyph unicode="&#xe2d;" horiz-adv-x="1071" d="M492 436h-156q-14 -1 -22.5 -10.5t-8.5 -22.5v-57q0 -87 55 -126.5t162 -39.5q90 0 141 32t76 109.5t25 215.5q0 178 -57 253.5t-193 75.5q-89 0 -187.5 -40t-162.5 -103l-107 168q86 86 203 132t254 46q249 0 372.5 -139.5t123.5 -399.5q0 -544 -484 -544 q-226 0 -341 98.5t-115 255.5v90q0 91 59 146t152 55h211v-195z" />
<glyph unicode="&#xe2e;" horiz-adv-x="1071" d="M492 436h-156q-14 -1 -22.5 -10.5t-8.5 -22.5v-57q0 -87 55 -126.5t162 -39.5q90 0 141.5 31.5t77 109.5t25.5 216q0 177 -58 253t-194 76q-89 0 -187.5 -40t-162.5 -103l-107 168q86 86 203 132t254 46q130 0 209 -43l86 100h272l-184 -219q113 -125 113 -377 q0 -544 -484 -544q-226 0 -341 98.5t-115 255.5v90q0 91 59 146t152 55h211v-195z" />
<glyph unicode="&#xe2f;" horiz-adv-x="1007" d="M928 0h-246v711q-38 -59 -110.5 -94t-139.5 -35q-166 0 -265 100.5t-99 253.5v111h241v-97q0 -82 47 -130t125 -48q88 0 147.5 64.5t59.5 156.5v54h240v-1047z" />
<glyph unicode="&#xe30;" horiz-adv-x="546" d="M475 639h-239q-64 0 -114 45.5t-50 118.5v115h207v-58q0 -10 8 -17t20 -7h168v-197zM475 141h-239q-64 0 -114 45.5t-50 118.5v115h207v-58q0 -10 8 -17t20 -7h168v-197z" />
<glyph unicode="&#xe31;" horiz-adv-x="0" d="M111 1186h-502q-80 0 -129 46.5t-49 115.5v96h198v-49q0 -13 10 -22t25 -9h447v-178z" />
<glyph unicode="&#xe32;" horiz-adv-x="909" d="M831 0h-245v670q0 99 -46 149.5t-132 50.5q-80 0 -165.5 -40t-154.5 -107l-80 166q67 74 177 127t239 53q192 0 299.5 -110t107.5 -304v-655z" />
<glyph unicode="&#xe33;" horiz-adv-x="929" d="M-201 1151q-78 0 -133 55t-55 133t55 133.5t133 55.5t133.5 -55.5t55.5 -133.5t-55.5 -133t-133.5 -55zM-201 1276q27 0 45.5 19t18.5 46q0 26 -19 45t-45 19t-44.5 -19t-18.5 -45q0 -28 18.5 -46.5t44.5 -18.5zM831 0h-245v670q0 99 -46 149.5t-132 50.5 q-80 0 -165.5 -40t-154.5 -107l-80 166q67 74 177 127t239 53q192 0 299.5 -110t107.5 -304v-655z" />
<glyph unicode="&#xe34;" horiz-adv-x="0" d="M-78 1186h-817v196h817v-196z" />
<glyph unicode="&#xe35;" horiz-adv-x="0" d="M-78 1186h-817v196h606v156h211v-352z" />
<glyph unicode="&#xe36;" horiz-adv-x="0" d="M-133 1393q0 25 -16 41t-41 16t-42.5 -16.5t-17.5 -40.5q0 -25 17.5 -41.5t42.5 -16.5t41 16.5t16 41.5zM-207 1186h-688v196h512q2 89 52.5 146t135.5 57q80 0 136.5 -56.5t56.5 -135.5q0 -86 -58 -146.5t-147 -60.5z" />
<glyph unicode="&#xe37;" horiz-adv-x="0" d="M-78 1186h-817v196h410v144h168v-144h63v144h176v-340z" />
<glyph unicode="&#xe38;" horiz-adv-x="0" d="M-78 -569h-203v237q0 23 -20 23h-100v190h188q60 0 97.5 -42.5t37.5 -104.5v-303z" />
<glyph unicode="&#xe39;" horiz-adv-x="0" d="M-276 -340v221h198v-221q0 -115 -70 -181.5t-198 -66.5q-122 0 -190 66t-68 174v31h-92v198h282v-229q0 -26 18 -40.5t50 -14.5q70 0 70 63z" />
<glyph unicode="&#xe3a;" horiz-adv-x="0" d="M-59 -246q0 -58 -44 -100.5t-104 -42.5t-104.5 42.5t-44.5 100.5q0 59 44.5 102.5t104.5 43.5t104 -43.5t44 -102.5z" />
<glyph unicode="&#xe3f;" horiz-adv-x="1105" d="M590 -180h-84v180h-373v1243h373v184h84v-184q168 0 266 -83.5t98 -237.5q0 -198 -180 -279q209 -67 209 -295q0 -117 -54 -197t-140.5 -115.5t-198.5 -35.5v-180zM590 545v-346q67 0 101 44t34 119q0 82 -35.5 132.5t-99.5 50.5zM590 1044v-303q57 0 86 43.5t29 118.5 q0 64 -33 102.5t-82 38.5zM506 199v346h-123v-346h123zM506 741v303h-123v-303h123z" />
<glyph unicode="&#xe40;" horiz-adv-x="403" d="M330 0h-244v1049h244v-1049z" />
<glyph unicode="&#xe41;" horiz-adv-x="827" d="M721 0h-223v1067h223v-1067zM330 0h-224v1067h224v-1067z" />
<glyph unicode="&#xe42;" horiz-adv-x="534" d="M428 0h-246v1182q0 108 -36.5 174.5t-114.5 103.5l-41 99q67 97 178.5 151.5t230.5 54.5q89 0 188.5 -26t170.5 -68l-27 -190q-72 42 -158.5 63t-152.5 21q-101 0 -184 -52q90 -43 141 -139.5t51 -208.5v-1165z" />
<glyph unicode="&#xe43;" horiz-adv-x="501" d="M395 0h-245v1133q0 54 21.5 100t52.5 78.5t62 62t52.5 64t21.5 71.5q0 34 -29.5 56t-82.5 22q-54 0 -114.5 -40.5t-102.5 -102.5l-115 125q59 94 152 148.5t198 54.5q150 0 231 -69.5t81 -174.5q0 -54 -19 -97.5t-46 -74.5t-53.5 -62t-45.5 -76.5t-19 -101.5v-1116z" />
<glyph unicode="&#xe44;" horiz-adv-x="534" d="M430 0h-246v1214q0 97 39.5 182.5t114.5 133.5h-467v178h717v-156q-158 -64 -158 -280v-1272z" />
<glyph unicode="&#xe45;" horiz-adv-x="907" d="M829 -410h-243v1080q0 99 -46 149.5t-132 50.5q-80 0 -165.5 -40t-154.5 -107l-80 166q67 74 177 127t239 53q191 0 298 -110t107 -304v-1065z" />
<glyph unicode="&#xe46;" horiz-adv-x="1081" d="M975 -387h-246v1169q0 84 -70 109l-131 -115l-145 123q-44 -6 -69 -34t-25 -68q0 -32 26.5 -59t63.5 -27q40 0 78 14l14 -154q-62 -20 -115 -20q-103 0 -184.5 68.5t-81.5 179.5q0 120 86 191.5t215 82.5l137 -127l123 125q144 -7 234 -97t90 -216v-1145z" />
<glyph unicode="&#xe47;" horiz-adv-x="0" d="M-164 1178h-149q-92 0 -144 82q-45 -80 -180 -80q-97 0 -158 61t-61 154q0 40 16 78.5t47 72t85 54t122 20.5h180q82 0 82 68v24h181v-55q0 -80 -56 -137.5t-147 -57.5h-236q-80 0 -80 -61q0 -26 21 -42t59 -16q82 0 127 52q18 -23 49.5 -37.5t67.5 -14.5h174v-165z" />
<glyph unicode="&#xe48;" horiz-adv-x="0" d="M-88 1614h-188v287h188v-287z" />
<glyph unicode="&#xe49;" horiz-adv-x="0" d="M94 1614h-399q-42 0 -72.5 28.5t-30.5 71.5v41q0 27 -24 27h-107v147h162q45 0 74 -26t29 -68v-29q0 -37 34 -37h334v-155z" />
<glyph unicode="&#xe4a;" horiz-adv-x="0" d="M-80 1614h-86l-20 51q28 16 28 41q0 13 -9 23t-17 10l-103 -86l-96 86q-9 0 -18 -8.5t-9 -20.5q0 -29 29 -51l-27 -47h-112q-35 58 -35 112q0 62 45 109.5t127 56.5l96 -108l92 108q70 -7 111 -42.5t41 -82.5q0 -29 -12 -43q24 9 37.5 41.5t13.5 75.5q0 44 -23 82h168 q9 -40 9 -76q0 -97 -68 -164t-162 -67z" />
<glyph unicode="&#xe4b;" horiz-adv-x="0" d="M23 1696l-121 6l4 -88h-180l4 88l-121 -6v149l121 -6l-4 88h180l-4 -88l121 6v-149z" />
<glyph unicode="&#xe4c;" horiz-adv-x="0" d="M72 1587h-197q-14 0 -24.5 -10t-10.5 -21v-75h-192v86q0 90 65 146t158 56h201v-182z" />
<glyph unicode="&#xe4d;" horiz-adv-x="0" d="M-201 1151q-78 0 -133 55t-55 133t55 133.5t133 55.5t133.5 -55.5t55.5 -133.5t-55.5 -133t-133.5 -55zM-201 1276q27 0 45.5 19t18.5 46q0 26 -19 45t-45 19t-44.5 -19t-18.5 -45q0 -28 18.5 -46.5t44.5 -18.5z" />
<glyph unicode="&#xe4e;" horiz-adv-x="0" />
<glyph unicode="&#xe4f;" horiz-adv-x="1081" d="M547 10q-164 0 -280.5 117t-116.5 283q0 164 116.5 280.5t280.5 116.5t280.5 -116.5t116.5 -280.5q0 -166 -116.5 -283t-280.5 -117zM547 72q139 0 237.5 99t98.5 239q0 138 -98.5 236.5t-237.5 98.5t-237.5 -98.5t-98.5 -236.5q0 -140 98.5 -239t237.5 -99zM547 178 q-96 0 -164 68t-68 162q0 96 68 163.5t162 67.5q96 0 163.5 -67.5t67.5 -161.5q0 -96 -67.5 -164t-161.5 -68zM547 248q66 0 113 47.5t47 114.5q0 66 -47.5 112.5t-114.5 46.5q-66 0 -113 -47t-47 -114q0 -66 47.5 -113t114.5 -47z" />
<glyph unicode="&#xe50;" horiz-adv-x="1095" d="M1032 408q0 -107 -37 -189t-103 -132.5t-152.5 -75.5t-190.5 -25q-217 0 -350 106t-133 316t133 315.5t350 105.5q140 0 246.5 -43t171.5 -139.5t65 -238.5zM795 408q0 112 -70 171.5t-176 59.5q-107 0 -176.5 -59.5t-69.5 -171.5t69.5 -172t176.5 -60q106 0 176 60 t70 172z" />
<glyph unicode="&#xe51;" horiz-adv-x="1079" d="M500 -186h-84l22 182h58q137 0 210.5 87t73.5 265q0 134 -66 206.5t-190 72.5q-96 0 -163.5 -61t-67.5 -146q0 -172 149 -172q78 0 138 35l14 -177q-70 -45 -174 -45q-71 0 -134 21.5t-114 63.5t-81 113t-30 161q0 174 131.5 286.5t333.5 112.5q232 0 361 -124t129 -347 q0 -246 -138.5 -390t-377.5 -144z" />
<glyph unicode="&#xe52;" horiz-adv-x="1214" d="M766 0h-320q-159 0 -256.5 105t-97.5 262v641h213v-641q0 -71 43 -112.5t107 -41.5h311q57 0 100 45t43 111v137q0 49 -20 80t-55 37l-119 -121l-121 121q-28 -6 -42.5 -26.5t-14.5 -45.5q0 -41 29.5 -65.5t95.5 -36.5l-52 -146q-112 13 -182 76.5t-70 175.5 q0 102 64.5 175.5t173.5 90.5l119 -143q71 106 102 141q134 -6 219.5 -95t85.5 -235v-120q0 -150 -105 -259.5t-251 -109.5z" />
<glyph unicode="&#xe53;" horiz-adv-x="1114" d="M1020 0h-213v473q0 49 -27 78.5t-67 32.5l-148 -168l-162 168q-56 -24 -87 -77.5t-31 -111.5q0 -103 60.5 -161t143.5 -58q80 0 140 29l18 -185q-72 -34 -176 -34q-167 0 -282 113t-115 296q0 165 92.5 270.5t245.5 149.5l153 -178q140 174 140 176q138 -9 226.5 -101 t88.5 -243v-469z" />
<glyph unicode="&#xe54;" horiz-adv-x="1103" d="M1004 0h-115q-142 0 -217 63q-77 -77 -209 -77q-179 0 -283 110.5t-104 294.5q0 204 130.5 315t334.5 111h145q74 0 107.5 29t33.5 86v76h220v-78q0 -146 -89.5 -230t-242.5 -84h-172q-117 0 -183.5 -57.5t-66.5 -167.5q0 -102 45 -156.5t123 -54.5q48 0 110 27 q-32 46 -32 119q0 96 68.5 155.5t166.5 59.5h160l-41 -185h-92q-24 0 -38.5 -14.5t-14.5 -36.5q0 -104 155 -104h129z" />
<glyph unicode="&#xe55;" horiz-adv-x="1103" d="M557 803q27 0 47.5 20t20.5 49q0 27 -20.5 47.5t-47.5 20.5q-29 0 -49.5 -20t-20.5 -48q0 -29 20.5 -49t49.5 -20zM1004 0h-115q-142 0 -217 63q-77 -77 -209 -77q-179 0 -283 110.5t-104 294.5q0 164 87 269.5t232 140.5q-20 27 -20 67q0 82 51.5 130.5t128.5 48.5 q79 0 131.5 -48.5t52.5 -128.5q0 -33 -12 -51q100 14 100 113v76h220v-78q0 -146 -89.5 -230t-242.5 -84h-172q-117 0 -183.5 -57.5t-66.5 -167.5q0 -102 45 -156.5t123 -54.5q48 0 110 27q-32 46 -32 119q0 96 68.5 155.5t166.5 59.5h160l-41 -185h-92q-24 0 -38.5 -14.5 t-14.5 -36.5q0 -104 155 -104h129z" />
<glyph unicode="&#xe56;" horiz-adv-x="1093" d="M295 459l143 -99q-20 -25 -20 -65q0 -46 45 -84.5t115 -38.5q109 0 173 68.5t64 169.5q0 106 -66.5 171.5t-185.5 65.5q-169 0 -260 -127h-143l-121 488h215l59 -287q104 119 285 119q185 0 306.5 -121t121.5 -309q0 -88 -27.5 -164t-79.5 -134.5t-133.5 -92 t-183.5 -33.5q-180 0 -285.5 81t-105.5 216q0 53 22.5 100t61.5 76z" />
<glyph unicode="&#xe57;" horiz-adv-x="1415" d="M1008 0h-209v473q0 49 -27 78.5t-67 32.5l-148 -168l-154 168q-56 -24 -87 -77.5t-31 -111.5q0 -103 60.5 -161t143.5 -58q80 0 140 29l18 -185q-72 -34 -176 -34q-167 0 -282 113t-115 296q0 165 92.5 270.5t245.5 149.5l145 -178q139 174 139 176q138 -9 227 -101 t89 -243v-274q41 0 66.5 30t25.5 84v699h213v-676q0 -145 -88 -238.5t-221 -93.5z" />
<glyph unicode="&#xe58;" horiz-adv-x="1067" d="M700 -8l-139 166q-119 -166 -121 -166q-154 0 -254 80t-100 221v141q0 155 103 263t274 108h162q73 0 104 28.5t31 86.5v75h215v-77q0 -149 -82 -232.5t-238 -83.5h-182q-86 0 -128 -49.5t-42 -126.5v-129q0 -43 26.5 -70.5t76.5 -33.5l153 188l174 -186q64 30 64 114 q0 39 -29 70t-74 37l58 133q108 -7 175.5 -82t67.5 -170q0 -135 -89 -220t-206 -85z" />
<glyph unicode="&#xe59;" horiz-adv-x="1110" d="M924 0h-222l-198 545q-24 76 -101 76q-55 0 -87.5 -57.5t-32.5 -155.5q0 -106 34.5 -168t79.5 -62q25 0 55.5 12t51.5 31l49 -172q-68 -63 -166 -63q-131 0 -221 115t-90 307q0 189 90 305t229 116q62 0 119 -29.5t88 -76.5q12 46 47.5 76t79.5 30q32 0 67 -25t48 -61 l47 265h201l-95 -467h-157q-13 42 -37 69t-53 27t-41 -39q122 -341 215 -598z" />
<glyph unicode="&#xe5b;" horiz-adv-x="1843" d="M922 596q-31 0 -54.5 23t-23.5 55t23.5 54t54.5 22t53 -22t22 -54t-22 -55t-53 -23zM922 1436q160 0 266.5 -11t192.5 -43t134 -80t80 -134t43 -192.5t11 -266.5t-11 -266.5t-43 -192.5t-80 -134t-134 -80t-192.5 -43t-266.5 -11t-266.5 11t-192.5 43t-134 80t-80 134 t-43 192.5t-11 266.5t11 266.5t43 192.5t80 134t134 80t192.5 43t266.5 11zM1358 293v457q0 175 -125 288t-311 113t-311.5 -113t-125.5 -288v-457h174l195 209q32 -13 68 -13q78 0 131 52t53 133q0 79 -53.5 131.5t-130.5 52.5q-78 0 -132.5 -52.5t-54.5 -131.5 q0 -52 27 -99l-133 -145v320q0 123 84.5 197.5t208.5 74.5t208 -74.5t84 -197.5v-457h144z" />
<glyph unicode="&#x2000;" horiz-adv-x="964" />
<glyph unicode="&#x2001;" horiz-adv-x="1929" />
<glyph unicode="&#x2002;" horiz-adv-x="964" />
<glyph unicode="&#x2003;" horiz-adv-x="1929" />
<glyph unicode="&#x2004;" horiz-adv-x="643" />
<glyph unicode="&#x2005;" horiz-adv-x="482" />
<glyph unicode="&#x2006;" horiz-adv-x="321" />
<glyph unicode="&#x2007;" horiz-adv-x="321" />
<glyph unicode="&#x2008;" horiz-adv-x="241" />
<glyph unicode="&#x2009;" horiz-adv-x="385" />
<glyph unicode="&#x200a;" horiz-adv-x="107" />
<glyph unicode="&#x2010;" horiz-adv-x="600" d="M535 381h-469v197h469v-197z" />
<glyph unicode="&#x2011;" horiz-adv-x="600" d="M535 381h-469v197h469v-197z" />
<glyph unicode="&#x2012;" horiz-adv-x="600" d="M535 381h-469v197h469v-197z" />
<glyph unicode="&#x2013;" horiz-adv-x="899" d="M895 397h-891v164h891v-164z" />
<glyph unicode="&#x2014;" horiz-adv-x="1787" d="M1784 397h-1780v164h1780v-164z" />
<glyph unicode="&#x2018;" horiz-adv-x="503" d="M326 797h-260l161 446h211z" />
<glyph unicode="&#x2019;" horiz-adv-x="503" d="M274 797h-208l112 446h260z" />
<glyph unicode="&#x201a;" horiz-adv-x="503" d="M274 -197h-208l112 447h260z" />
<glyph unicode="&#x201c;" horiz-adv-x="864" d="M326 797h-260l161 446h211zM688 797h-262l162 446h211z" />
<glyph unicode="&#x201d;" horiz-adv-x="864" d="M274 797h-208l112 446h260zM635 797h-209l115 446h258z" />
<glyph unicode="&#x201e;" horiz-adv-x="864" d="M635 -197h-209l115 447h258zM274 -197h-208l112 447h260z" />
<glyph unicode="&#x2020;" d="M612 0h-227v774h-276v184h276v285h227v-285h277v-184h-277v-774z" />
<glyph unicode="&#x2021;" d="M889 262h-277v-262h-227v262h-276v174h276v377h-276v174h276v256h227v-256h277v-174h-277v-377h277v-174z" />
<glyph unicode="&#x2022;" horiz-adv-x="899" d="M449 309q-131 3 -220.5 94t-89.5 218q0 130 89.5 219.5t220.5 89.5q132 0 221.5 -88.5t89.5 -220.5q0 -130 -89.5 -219.5t-221.5 -92.5z" />
<glyph unicode="&#x2026;" horiz-adv-x="1787" d="M426 0h-250v250h250v-250zM1018 0h-248v250h248v-250zM1612 0h-250v250h250v-250z" />
<glyph unicode="&#x202f;" horiz-adv-x="385" />
<glyph unicode="&#x2030;" horiz-adv-x="1787" d="M281 -39h-148l764 1321h145zM1520 -20q-250 0 -250 313q0 146 56.5 223.5t193.5 77.5t193 -77.5t56 -223.5q0 -68 -11.5 -120.5t-38 -98t-77 -70t-122.5 -24.5zM1520 106q51 0 68.5 43.5t17.5 129.5q0 40 -1 62t-5.5 50t-13 42t-25 24t-41.5 10t-41.5 -10t-25 -24 t-13 -42t-5.5 -50t-1 -62q0 -86 17.5 -129.5t68.5 -43.5zM922 -20q-250 0 -250 313q0 146 56.5 223.5t193.5 77.5t193 -77.5t56 -223.5q0 -68 -11.5 -120.5t-38 -98t-77 -70t-122.5 -24.5zM922 106q51 0 68.5 43.5t17.5 129.5q0 40 -1 62t-5.5 50t-13 42t-25 24t-41.5 10 t-41.5 -10t-25 -24t-13 -42t-5.5 -50t-1 -62q0 -86 17.5 -129.5t68.5 -43.5zM272 649q-249 0 -249 314q0 146 56 223.5t193 77.5t193.5 -77.5t56.5 -223.5q0 -314 -250 -314zM272 776q51 0 68.5 43t17.5 129q0 41 -1 62.5t-5.5 50t-13 42.5t-25 24t-41.5 10t-41.5 -10 t-25 -24t-13 -42.5t-5.5 -50t-1 -62.5q0 -86 17.5 -129t68.5 -43z" />
<glyph unicode="&#x2039;" horiz-adv-x="600" d="M526 115h-225l-209 364l209 365h225l-196 -365z" />
<glyph unicode="&#x203a;" horiz-adv-x="600" d="M299 115h-223l194 364l-194 365h223l211 -365z" />
<glyph unicode="&#x2044;" horiz-adv-x="305" d="M-145 -39h-146l742 1321h145z" />
<glyph unicode="&#x205f;" horiz-adv-x="482" />
<glyph unicode="&#x20ac;" d="M1018 213l12 -199q-101 -34 -258 -34q-219 0 -383.5 123.5t-214.5 338.5h-176l27 109h133q-6 71 0 139h-160l27 109h149q53 206 215.5 335.5t380.5 129.5q162 0 295 -47l-47 -187q-82 43 -209 43q-133 0 -229 -73t-134 -201h521l-27 -109h-522q-9 -70 0 -139h489 l-24 -109h-437q38 -124 134.5 -196t226.5 -72q126 0 211 39z" />
<glyph unicode="&#x2122;" horiz-adv-x="1787" d="M1698 502h-174v524h-4l-189 -524h-133l-188 524h-4v-524h-175v741h259l176 -463l174 463h258v-741zM483 502h-186v598h-207v143h600v-143h-207v-598z" />
<glyph unicode="&#x2202;" horiz-adv-x="983" d="M711 469l-2 41q-96 121 -230 121q-107 0 -165 -74.5t-58 -183.5q0 -105 54 -178.5t155 -73.5q62 0 111.5 34t77.5 87t42.5 111.5t14.5 115.5zM225 1051l-102 116q79 61 147.5 89t157.5 28q106 0 189.5 -38t137 -100t88.5 -147.5t49.5 -174t14.5 -185.5q0 -98 -10.5 -184 t-41 -176t-79 -154t-130 -104.5t-187.5 -40.5q-174 0 -279.5 114t-105.5 289q0 168 104.5 278.5t272.5 110.5q145 0 262 -102q0 92 -14 171t-45 147t-87 107.5t-133 39.5q-104 0 -209 -84z" />
<glyph unicode="&#x2206;" horiz-adv-x="1224" d="M936 174l-338 873l-319 -873h657zM1206 0h-1186l484 1268h196z" />
<glyph unicode="&#x220f;" horiz-adv-x="1318" d="M1204 -381h-192v1606h-705v-1606h-190v1780h1087v-1780z" />
<glyph unicode="&#x2211;" horiz-adv-x="1153" d="M1104 -381h-1055v154l545 745l-522 731v150h1009v-174h-755l497 -705l-528 -729h809v-172z" />
<glyph unicode="&#x2212;" horiz-adv-x="1075" d="M989 358h-903v185h903v-185z" />
<glyph unicode="&#x221a;" horiz-adv-x="952" d="M596 -381h-180l-273 567l-90 -41l-69 152l254 117l235 -502l303 1487h195z" />
<glyph unicode="&#x221e;" horiz-adv-x="1441" d="M623 459q-42 42 -72.5 69t-82 55.5t-93.5 28.5q-64 0 -101.5 -43.5t-37.5 -107.5q0 -67 38 -107.5t105 -40.5q63 0 129 44t115 102zM819 457q135 -146 250 -146q64 0 100.5 43t36.5 107q0 68 -38.5 110.5t-104.5 42.5q-104 0 -244 -157zM721 346q-92 -92 -132 -122 q-97 -72 -210 -72q-135 0 -216 87t-81 224q0 134 80.5 223.5t212.5 89.5q55 0 104.5 -16.5t93 -49.5t75.5 -65t73 -80q45 50 74.5 79t75.5 64.5t94 52.5t102 17q132 0 211.5 -89t79.5 -222q0 -139 -78.5 -229.5t-214.5 -90.5q-52 0 -100 16t-93 48.5t-76.5 61t-74.5 73.5z " />
<glyph unicode="&#x222b;" horiz-adv-x="1075" d="M408 -25v953v30v65.5t2 65.5t6.5 68t13 62t21 59t32 48t44 40t59 23.5t76.5 9.5q41 0 82 -13t72.5 -43.5t31.5 -72.5q0 -38 -26.5 -63t-63.5 -25q-29 0 -49 12t-28.5 29t-14.5 34t-14 29t-21 12q-35 0 -35 -57q0 -40 2 -118.5t2 -118.5l2 -932v-12q0 -42 -0.5 -64.5 t-2.5 -65t-6 -67.5t-13 -62t-21 -59.5t-31.5 -48.5t-44 -40t-58.5 -24t-75 -10t-80.5 13t-69.5 43.5t-30 72.5q0 38 23 62t63 24q33 0 54.5 -18.5t29 -41t17.5 -41t22 -18.5q35 0 35 60q0 31 -3 98t-3 102z" />
<glyph unicode="&#x2248;" horiz-adv-x="1062" d="M887 428h119q-4 -59 -20.5 -110t-46.5 -94t-79 -68t-112 -25q-60 0 -152 30.5t-177.5 61.5t-127.5 31q-48 0 -78.5 -35.5t-38.5 -87.5h-121q6 59 23 109.5t46 94.5t77 69.5t110 25.5q63 0 149.5 -30t171 -59.5t142.5 -29.5q50 0 78 33.5t37 83.5zM889 791h121 q-6 -61 -23 -112t-46.5 -94t-77.5 -67t-111 -24q-62 0 -154 30.5t-176.5 61t-126.5 30.5q-88 0 -117 -122h-121q6 59 23 109.5t46 94.5t76.5 69.5t108.5 25.5q62 0 149.5 -30.5t173 -60.5t142.5 -30q48 0 76.5 33.5t36.5 85.5z" />
<glyph unicode="&#x2260;" horiz-adv-x="1062" d="M993 176h-508l-137 -270l-160 82l99 188h-217v182h307l108 207h-415v180h508l137 271l157 -80l-96 -191h217v-180h-309l-106 -207h415v-182z" />
<glyph unicode="&#x2264;" horiz-adv-x="1062" d="M993 -61h-923v178h923v-178zM993 178l-923 305v185l923 317v-190l-678 -217l678 -209v-191z" />
<glyph unicode="&#x2265;" horiz-adv-x="1062" d="M993 -61h-923v178h923v-178zM993 483l-923 -305v191l675 209l-675 217v190l923 -317v-185z" />
<glyph unicode="&#x25ca;" horiz-adv-x="1062" d="M528 115l217 518l-217 516l-211 -516zM614 -61h-168l-313 694l313 696h168l316 -696z" />
<glyph unicode="&#x25fc;" horiz-adv-x="921" d="M0 922h922v-922h-922v922z" />
<glyph unicode="&#xf700;" horiz-adv-x="1073" d="M510 0h-174l-90 375q-10 41 -49 41h-78v198h143q77 0 128.5 -40.5t70.5 -112.5l69 -268q93 3 157.5 97.5t64.5 256.5q0 171 -70.5 255.5t-202.5 84.5q-81 0 -173 -46t-159 -114l-100 170q186 186 432 186q143 0 240 -57l106 113h285l-231 -232q116 -132 116 -360 q0 -244 -135.5 -395.5t-349.5 -151.5z" />
<glyph unicode="&#xf701;" horiz-adv-x="0" d="M-393 1186h-742v196h742v-196z" />
<glyph unicode="&#xf702;" horiz-adv-x="0" d="M-393 1186h-742v196h521v156h221v-352z" />
<glyph unicode="&#xf703;" horiz-adv-x="0" d="M-461 1393q0 25 -16 41t-41 16t-42.5 -16.5t-17.5 -40.5q0 -25 17.5 -41.5t42.5 -16.5t41 16.5t16 41.5zM-535 1186h-600v196h424q0 91 52 147t137 56q80 0 136 -56.5t56 -135.5q0 -86 -58 -146.5t-147 -60.5z" />
<glyph unicode="&#xf704;" horiz-adv-x="0" d="M-393 1186h-742v196h334v144h168v-144h64v144h176v-340z" />
<glyph unicode="&#xf705;" horiz-adv-x="0" d="M-436 1186h-211v327h211v-327z" />
<glyph unicode="&#xf706;" horiz-adv-x="0" d="M-170 1186h-436q-42 0 -72.5 28.5t-30.5 71.5v47q0 27 -24 27h-107v168h189q45 0 73.5 -26t28.5 -68v-39q0 -37 35 -37h344v-172z" />
<glyph unicode="&#xf707;" horiz-adv-x="0" d="M-412 1186h-94l-24 57q30 21 30 51q0 13 -9.5 24t-18.5 11l-115 -100l-109 100q-11 0 -20.5 -9.5t-9.5 -21.5q0 -36 32 -61l-30 -53h-129q-39 69 -39 129q0 72 52 127.5t144 64.5l109 -123q102 123 102 125q80 -7 125 -48t45 -97q0 -34 -12 -51q27 10 42 49t15 88 q0 46 -24 96h188q10 -38 10 -88q0 -115 -77 -192.5t-183 -77.5z" />
<glyph unicode="&#xf708;" horiz-adv-x="0" d="M-369 1284l-145 6l6 -104h-215l6 104l-145 -6v176l145 -6l-6 105h215l-6 -105l145 6v-176z" />
<glyph unicode="&#xf709;" horiz-adv-x="0" d="M-367 1300h-196q-14 0 -24.5 -9.5t-10.5 -20.5v-84h-221v102q0 92 63 155.5t154 63.5h235v-207z" />
<glyph unicode="&#xf70a;" horiz-adv-x="0" d="M-94 1186h-213v327h213v-327z" />
<glyph unicode="&#xf70b;" horiz-adv-x="0" d="M92 1186h-436q-42 0 -72 28.5t-30 71.5v47q0 11 -7 19t-18 8h-107v168h189q45 0 73.5 -26t28.5 -68v-39q0 -37 35 -37h344v-172z" />
<glyph unicode="&#xf70c;" horiz-adv-x="0" d="M-305 1186h-94l-25 57q31 22 31 51q0 13 -10 24t-19 11l-115 -100l-108 100q-11 0 -21 -9.5t-10 -21.5q0 -35 33 -61l-31 -53h-129q-39 69 -39 129q0 72 52.5 127.5t144.5 64.5l108 -123q103 123 103 125q80 -7 125 -48t45 -97q0 -34 -12 -51q27 10 42 49t15 88 q0 44 -25 96h189q10 -38 10 -88q0 -115 -77 -192.5t-183 -77.5z" />
<glyph unicode="&#xf70d;" horiz-adv-x="0" d="M47 1284l-145 6l6 -104h-215l6 104l-145 -6v176l145 -6l-6 105h215l-6 -105l145 6v-176z" />
<glyph unicode="&#xf70e;" horiz-adv-x="0" d="M-8 1300h-197q-14 0 -24.5 -9.5t-10.5 -20.5v-84h-221v102q0 92 63 155.5t154 63.5h236v-207z" />
<glyph unicode="&#xf70f;" horiz-adv-x="1687" d="M1364 358v689h246v-676q0 -181 -106.5 -283t-319.5 -102q-215 0 -321.5 105.5t-106.5 295.5v283q0 99 -54 154t-151 55q-161 0 -236 -115l115 -148q-86 -57 -86 -157v-238q0 -31 29 -31h78v-190h-152q-82 0 -141.5 59.5t-59.5 143.5v237q0 48 23.5 99t62.5 84 q1 0 -29.5 33.5t-60.5 67.5l-31 34q41 130 176 220.5t312 90.5q196 0 323 -110.5t127 -276.5v-309q0 -91 47 -144t138 -53q88 0 133 47t45 135z" />
<glyph unicode="&#xf710;" horiz-adv-x="0" d="M59 1176h-657q-80 0 -129 46t-49 115v97h198v-50q0 -13 10 -21.5t25 -8.5h602v-178z" />
<glyph unicode="&#xf711;" horiz-adv-x="0" d="M-578 1151q-78 0 -133 55t-55 133t55 133.5t133 55.5t133.5 -55.5t55.5 -133.5t-55.5 -133t-133.5 -55zM-578 1276q26 0 45 19t19 46q0 26 -19 45t-45 19t-44.5 -19t-18.5 -45q0 -28 18.5 -46.5t44.5 -18.5z" />
<glyph unicode="&#xf712;" horiz-adv-x="0" d="M-354 1178h-150q-91 0 -143 82q-45 -80 -180 -80q-97 0 -158.5 61t-61.5 154q0 40 16 78.5t47.5 72t85.5 54t122 20.5h180q82 0 82 68v24h180v-55q0 -80 -56 -137.5t-147 -57.5h-235q-80 0 -80 -61q0 -26 21 -42t59 -16q82 0 127 52q18 -23 49.5 -37.5t67.5 -14.5h174 v-165z" />
<glyph unicode="&#xf713;" horiz-adv-x="0" d="M-410 1614h-188v287h188v-287z" />
<glyph unicode="&#xf714;" horiz-adv-x="0" d="M-121 1614h-399q-42 0 -72.5 28.5t-30.5 71.5v41q0 27 -24 27h-107v147h162q45 0 74 -26t29 -68v-29q0 -37 34 -37h334v-155z" />
<glyph unicode="&#xf715;" horiz-adv-x="0" d="M-268 1614h-86l-21 51q29 16 29 41q0 13 -9.5 23t-17.5 10l-102 -86l-96 86q-9 0 -18 -8.5t-9 -20.5q0 -29 29 -51l-27 -47h-113q-34 57 -34 112q0 62 45 109.5t127 56.5l96 -108l92 108q70 -7 111 -42.5t41 -82.5q0 -27 -13 -43q24 9 37.5 41.5t13.5 75.5q0 46 -22 82 h168q8 -36 8 -76q0 -97 -68 -164t-161 -67z" />
<glyph unicode="&#xf716;" horiz-adv-x="0" d="M-301 1696l-121 6l4 -88h-180l4 88l-121 -6v149l121 -6l-4 88h180l-4 -88l121 6v-149z" />
<glyph unicode="&#xf717;" horiz-adv-x="0" d="M-266 1587h-197q-14 0 -24.5 -10t-10.5 -21v-75h-192v86q0 90 65 146t158 56h201v-182z" />
<glyph unicode="&#xf718;" horiz-adv-x="0" d="M-78 -979h-203v238q0 22 -20 22h-100v191h188q60 0 97.5 -43t37.5 -105v-303z" />
<glyph unicode="&#xf719;" horiz-adv-x="0" d="M-285 -750v222h199v-222q0 -115 -70 -181t-198 -66q-122 0 -190 65.5t-68 173.5v31h-93v199h283v-230q0 -26 18 -40.5t50 -14.5q36 0 52.5 15t16.5 48z" />
<glyph unicode="&#xf71a;" horiz-adv-x="0" d="M-59 -649q0 -58 -44 -101t-104 -43t-104.5 43t-44.5 101t44.5 101.5t104.5 43.5t104 -43t44 -102z" />
<glyph unicode="&#xf71b;" horiz-adv-x="1126" d="M1049 -410h-263q-92 86 -215 86q-169 0 -286 -100l-64 186q61 60 143.5 91.5t153.5 31.5q74 0 155 -35.5t132 -93.5v914q0 98 -59.5 153.5t-157.5 55.5q-159 0 -234 -115l115 -148q-84 -56 -84 -157v-264q0 -76 -54.5 -135.5t-125.5 -59.5h-160v190h76q20 0 20 23v227 q0 49 22 99.5t60 83.5q1 0 -29.5 33.5t-61.5 67.5l-30 34q42 130 175.5 220.5t310.5 90.5q198 0 329.5 -111t131.5 -280v-1088z" />
<glyph unicode="&#xf71c;" horiz-adv-x="1126" d="M1049 -410h-211l-195 150q-21 -71 -92.5 -116.5t-149.5 -45.5q-133 0 -245 76l47 188q41 -32 96 -52.5t102 -20.5q65 0 119 61t58 139l227 -155v856q0 98 -59.5 153.5t-157.5 55.5q-159 0 -234 -115l115 -148q-84 -56 -84 -157v-264q0 -76 -54.5 -135.5t-125.5 -59.5 h-160v190h76q20 0 20 23v227q0 49 22 99.5t60 83.5q1 0 -29.5 33.5t-61.5 67.5l-30 34q42 130 175.5 220.5t310.5 90.5q198 0 329.5 -111t131.5 -280v-1088z" />
<glyph unicode="&#xf71d;" horiz-adv-x="1185" d="M1108 0h-207l-307 465q-305 -465 -307 -465h-207v1047h242v-560q0 -16 -4 -48t-8 -55l-5 -24h6q27 101 56 138l172 231h110l168 -231q13 -24 26.5 -58.5t20.5 -57.5l8 -22h7q-13 78 -13 127v177q0 38 -26 65t-58 27h-47l-28 102l167 295h259l-185 -276q74 -25 117 -88.5 t43 -153.5v-635z" />
<glyph unicode="&#xf8ff;" horiz-adv-x="1843" d="M922 596q-31 0 -54.5 23t-23.5 55t23.5 54t54.5 22t53 -22t22 -54t-22 -55t-53 -23zM922 1436q160 0 266.5 -11t192.5 -43t134 -80t80 -134t43 -192.5t11 -266.5t-11 -266.5t-43 -192.5t-80 -134t-134 -80t-192.5 -43t-266.5 -11t-266.5 11t-192.5 43t-134 80t-80 134 t-43 192.5t-11 266.5t11 266.5t43 192.5t80 134t134 80t192.5 43t266.5 11zM1358 293v457q0 175 -125 288t-311 113t-311.5 -113t-125.5 -288v-457h174l195 209q32 -13 68 -13q78 0 131 52t53 133q0 79 -53.5 131.5t-130.5 52.5q-78 0 -132.5 -52.5t-54.5 -131.5 q0 -52 27 -99l-133 -145v320q0 123 84.5 197.5t208.5 74.5t208 -74.5t84 -197.5v-457h144z" />
<glyph horiz-adv-x="399" />
<glyph horiz-adv-x="880" d="M-578 1151q-78 0 -133 55t-55 133t55 133.5t133 55.5t133.5 -55.5t55.5 -133.5t-55.5 -133t-133.5 -55zM-578 1276q26 0 45 19t19 46q0 26 -19 45t-45 19t-44.5 -19t-18.5 -45q0 -28 18.5 -46.5t44.5 -18.5zM803 0h-246v670q0 99 -46 149.5t-132 50.5q-80 0 -165.5 -40 t-154.5 -107l-79 166q67 74 176.5 127t238.5 53q192 0 300 -110t108 -304v-655z" />
<glyph horiz-adv-x="0" />
<glyph horiz-adv-x="1024" />
</font>
</defs>
</svg>
